<?xml version="1.0" encoding="UTF-8" standalone="no" ?>
<!DOCTYPE svg PUBLIC "-//W3C//DTD SVG 1.1//EN" "http://www.w3.org/Graphics/SVG/1.1/DTD/svg11.dtd">
<svg xmlns="http://www.w3.org/2000/svg" xmlns:xlink="http://www.w3.org/1999/xlink" version="1.1" width="62" height="62" viewBox="0 0 62 62" xml:space="preserve">
<desc>Created with Fabric.js 5.3.0</desc>
<defs>
</defs>
<g transform="matrix(1.0000544334 0 0 1.0052878892 31.2888182638 31.1279881919)" id="6Xyru3cGcQbD84p5V78Pv"  >
<g style="" vector-effect="non-scaling-stroke"   >
		<g transform="matrix(1.0033746888 0 0 1.003374618 12.130568119 -0.0037844318)" id="gYtNl-_3lkWqbo8g-znmB"  >
<path style="stroke: none; stroke-width: 1; stroke-dasharray: none; stroke-linecap: butt; stroke-dashoffset: 0; stroke-linejoin: miter; stroke-miterlimit: 4; fill: rgb(227,33,38); fill-rule: nonzero; opacity: 1;" vector-effect="non-scaling-stroke"  transform=" translate(-55.4873324079, -41.4552347272)" d="M 60.7359 11.2285 C 61.0255 11.2285 61.3152 11.2285 61.6049 11.2285 C 61.6751 11.3468 61.7234 11.5483 61.8112 11.5658 C 69.6939 13.2656 73.3983 17.7781 73.4115 25.7602 C 73.4246 36.1081 73.4027 46.4604 73.4378 56.8083 C 73.4422 57.5399 73.0252 58.3942 73.7933 59.0207 C 73.7933 59.3099 73.7933 59.599 73.7933 59.8882 C 72.977 60.1948 73.293 61.0228 73.1262 61.5661 C 71.3662 67.4103 66.8235 71.5153 61.4995 71.5985 C 53.8889 71.7168 46.2739 71.6248 38.6589 71.6818 C 37.5133 71.6905 37.171 71.3663 37.2017 70.2229 C 37.2807 67.3315 37.3114 64.4312 37.1929 61.5398 C 37.1315 60.0765 37.6274 59.7567 39.01 59.7699 C 45.7516 59.84 52.4976 59.748 59.2392 59.84 C 60.9816 59.8619 61.7014 59.4807 61.5829 57.5925 C 61.4162 54.999 61.4293 52.3791 61.5829 49.7812 C 61.6839 48.0551 61.1396 47.6082 59.4279 47.6301 C 52.6117 47.7309 45.7955 47.6258 38.9793 47.7046 C 37.5265 47.7221 37.1403 47.2928 37.1929 45.8909 C 37.2983 43.0739 37.3158 40.2438 37.1885 37.4268 C 37.1183 35.8978 37.5528 35.5036 39.0846 35.5255 C 45.971 35.6131 52.8619 35.5255 59.7483 35.5956 C 61.166 35.6087 61.6312 35.2363 61.5698 33.795 C 61.46 31.0481 61.4469 28.2924 61.5742 25.5456 C 61.6488 23.8939 61.2494 23.3156 59.4542 23.3463 C 52.5678 23.4602 45.677 23.3682 38.7905 23.4164 C 37.6011 23.4252 37.1534 23.1579 37.1929 21.8831 C 37.2983 18.4834 37.2631 15.0838 37.2851 11.6841 C 44.3559 11.6753 51.431 11.6753 58.5018 11.6359 C 59.2611 11.6403 60.1126 11.9776 60.7359 11.2285 Z" stroke-linecap="round" />
</g>
		<g transform="matrix(1.0033746888 0 0 1.003374618 -7.8289726599 0.0022074242)" id="Rnvfbx8SnxHUnowVBZMt8"  >
<path style="stroke: none; stroke-width: 1; stroke-dasharray: none; stroke-linecap: butt; stroke-dashoffset: 0; stroke-linejoin: miter; stroke-miterlimit: 4; fill: rgb(227,33,38); fill-rule: nonzero; opacity: 1;" vector-effect="non-scaling-stroke"  transform=" translate(-35.5949223234, -41.4612064309)" d="M 25.4785 11.2285 C 25.9174 11.9557 26.6372 11.6359 27.2341 11.6491 C 29.3892 11.6972 31.5398 11.6885 33.6948 11.6972 C 33.7168 16.0388 33.8485 20.3804 33.708 24.7132 C 33.6466 26.6014 34.2654 26.9387 36.0123 26.9124 C 42.8241 26.8073 49.6403 26.9037 56.4521 26.838 C 57.7732 26.8248 58.3438 27.1402 58.1244 28.5071 C 58.0453 29.0022 58.041 29.5323 58.1244 30.0229 C 58.4184 31.7578 57.6898 32.1565 56.0132 32.1346 C 49.2716 32.0382 42.53 32.1433 35.7884 32.0557 C 34.2084 32.0338 33.6729 32.3711 33.7168 34.0578 C 33.8397 39.0478 33.8528 44.0421 33.7124 49.0321 C 33.6597 50.8502 34.3049 51.1656 35.9376 51.1481 C 42.6792 51.0692 49.4208 51.1787 56.1624 51.0692 C 57.8522 51.0429 58.3789 51.5687 58.1244 53.137 C 58.0673 53.4875 58.0673 53.8687 58.1244 54.2192 C 58.3833 55.8883 57.7864 56.4359 56.0176 56.4053 C 49.276 56.2957 42.5344 56.4096 35.7928 56.3264 C 34.2347 56.3089 33.6553 56.6024 33.7212 58.311 C 33.866 62.2145 33.6992 66.1267 33.8046 70.0301 C 33.8397 71.4145 33.4052 71.7519 32.0928 71.6862 C 29.9246 71.5766 27.7433 71.6774 25.5707 71.6336 C 19.3031 71.5109 13.5051 66.2406 13.2901 59.9407 C 12.8775 47.7966 12.9433 35.635 13.2637 23.4865 C 13.4042 18.076 17.1217 13.7432 22.3184 12.0609 C 22.9504 11.8593 25.0396 11.2285 25.4785 11.2285 Z" stroke-linecap="round" />
</g>
		<g transform="matrix(1.0033746888 0 0 1.003374618 3.4537520524 0.0022074242)" id="Q9g_lQGUwNGCXkJsuE2BS"  >
<path style="stroke: none; stroke-width: 1; stroke-dasharray: none; stroke-linecap: butt; stroke-dashoffset: 0; stroke-linejoin: miter; stroke-miterlimit: 4; fill: rgb(254,244,242); fill-rule: nonzero; opacity: 1;" vector-effect="non-scaling-stroke"  transform=" translate(-46.8396994119, -41.4612064309)" d="M 32.084 71.6862 C 33.392 71.7519 33.8309 71.4145 33.7958 70.0301 C 33.6948 66.1267 33.8616 62.2145 33.7124 58.311 C 33.6466 56.6024 34.2259 56.3045 35.784 56.3264 C 42.5256 56.4096 49.2672 56.2957 56.0088 56.4053 C 57.7776 56.4359 58.3789 55.8883 58.1156 54.2192 C 58.0585 53.8643 58.0585 53.4875 58.1156 53.137 C 58.3701 51.5687 57.8478 51.0429 56.1537 51.0692 C 49.4121 51.1744 42.6705 51.0648 35.9289 51.1481 C 34.2961 51.1656 33.6553 50.8545 33.7036 49.0321 C 33.8441 44.0421 33.8309 39.0478 33.708 34.0578 C 33.6685 32.3711 34.1996 32.0338 35.7796 32.0557 C 42.5212 32.1433 49.2628 32.0382 56.0044 32.1346 C 57.6811 32.1565 58.4097 31.7578 58.1156 30.0229 C 58.0322 29.5323 58.0366 29.0022 58.1156 28.5071 C 58.335 27.1402 57.7645 26.8248 56.4434 26.838 C 49.6315 26.9037 42.8153 26.8073 36.0035 26.9124 C 34.261 26.9387 33.6422 26.6014 33.6992 24.7132 C 33.8397 20.3804 33.708 16.0344 33.6861 11.6972 C 33.7036 11.5395 33.7212 11.3862 33.7387 11.2285 C 34.8974 11.2285 36.0605 11.2285 37.2193 11.2285 C 37.2412 11.3818 37.2631 11.5395 37.2851 11.6929 C 37.2631 15.0925 37.2983 18.4965 37.1929 21.8918 C 37.1534 23.1667 37.6011 23.4339 38.7905 23.4252 C 45.677 23.3726 52.5678 23.469 59.4542 23.3551 C 61.2494 23.3244 61.6488 23.9027 61.5742 25.5543 C 61.4469 28.2968 61.46 31.0569 61.5698 33.8037 C 61.6268 35.2451 61.166 35.6175 59.7483 35.6043 C 52.8619 35.5342 45.971 35.6218 39.0846 35.5342 C 37.5528 35.5123 37.1139 35.911 37.1885 37.4356 C 37.3202 40.2526 37.2983 43.0827 37.1929 45.8996 C 37.1402 47.3016 37.5265 47.7309 38.9793 47.7134 C 45.7955 47.6345 52.6117 47.7353 59.4279 47.6389 C 61.1396 47.6126 61.6839 48.0595 61.5829 49.79 C 61.4293 52.3879 61.4205 55.0077 61.5829 57.6013 C 61.7014 59.4895 60.9816 59.875 59.2392 59.8487 C 52.4976 59.7567 45.7516 59.8487 39.01 59.7786 C 37.623 59.7655 37.1315 60.0853 37.1929 61.5486 C 37.3114 64.44 37.2807 67.3402 37.2017 70.2317 C 37.171 71.3751 37.5089 71.6993 38.6589 71.6905" stroke-linecap="round" />
</g>
		<g transform="matrix(1.0033746888 0 0 1.003374618 5.6075967495 -30.0920087923)" id="uMkc96oCqfWIWXIjMdqAu"  >
<path style="stroke: none; stroke-width: 1; stroke-dasharray: none; stroke-linecap: butt; stroke-dashoffset: 0; stroke-linejoin: miter; stroke-miterlimit: 4; fill: rgb(227,33,38); fill-rule: nonzero; opacity: 1;" vector-effect="non-scaling-stroke"  transform=" translate(-48.9863, -11.4682051371)" d="M 37.2983 11.6885 C 37.2763 11.5352 37.2544 11.3774 37.2324 11.2241 C 45.0669 11.2241 52.9058 11.2241 60.7402 11.2241 C 60.117 11.9733 59.2611 11.6359 58.515 11.6403 C 51.4442 11.6797 44.369 11.6797 37.2983 11.6885 Z" stroke-linecap="round" />
</g>
		<g transform="matrix(1.0033746888 0 0 1.003374618 -13.8310821098 -30.0919878548)" id="WNpj3SIVifJW2TX_U6Kt2"  >
<path style="stroke: none; stroke-width: 1; stroke-dasharray: none; stroke-linecap: butt; stroke-dashoffset: 0; stroke-linejoin: miter; stroke-miterlimit: 4; fill: rgb(227,33,38); fill-rule: nonzero; opacity: 1;" vector-effect="non-scaling-stroke"  transform=" translate(-29.613, -11.4682260042)" d="M 33.7475 11.2285 C 33.7299 11.3862 33.7124 11.5395 33.6948 11.6972 C 31.5398 11.6841 29.3848 11.6972 27.2341 11.6491 C 26.6372 11.6359 25.9174 11.9557 25.4785 11.2285 C 28.2348 11.2285 30.9912 11.2285 33.7475 11.2285 Z" stroke-linecap="round" />
</g>
</g>
</g>
</svg>