<?xml version="1.0" encoding="utf-8"?>
<!-- Generator: Adobe Illustrator 26.0.2, SVG Export Plug-In . SVG Version: 6.00 Build 0)  -->
<svg version="1.1" id="Layer_1" xmlns="http://www.w3.org/2000/svg" xmlns:xlink="http://www.w3.org/1999/xlink" x="0px" y="0px"
	 viewBox="0 0 233.5 225.4" style="enable-background:new 0 0 233.5 225.4;" xml:space="preserve">
<style type="text/css">
	.st0{fill:#53C2FB;}
	.st1{fill:#3AA6DF;}
	.st2{fill:#38A6E0;}
	.st3{fill:#2084BD;}
	.st4{fill:#54C3FB;}
</style>
<path class="st0" d="M80.1,108.49c-0.33,5.35,3.04,9.34,5.22,13.7c3.44,6.87,7.46,13.45,10.94,20.3c0.88,1.73,1.86,1.98,3.43,1.97
	c10.96-0.04,21.91-0.05,32.87-0.08c0.06,0.24,0.1,0.48,0.11,0.72c-10.23,0.04-20.46,0.08-30.7,0.12c-3.57,0.06-4.33,0.91-2.49,3.59
	c1.98,2.89,3.42,6.03,4.92,9.11c3.79,7.76,9.05,14.76,11.75,23.07c-11.06,0.05-22.12,0.17-33.18,0.12c-3.92-0.02-6.8-2.05-8.65-5.52
	c-4.09-7.64-8.19-15.28-12.29-22.92c-0.18-0.25-0.36-0.5-0.54-0.75c0,0,0.02,0.02,0.02,0.02c-0.23-0.33-0.46-0.65-0.68-0.98
	c0.05-0.2,0-0.37-0.15-0.52c-0.51-3.28-2.63-5.69-4.42-8.28c0.02-0.26-0.05-0.48-0.22-0.68c-0.36-2.09-1.77-3.6-2.91-5.25
	c-0.2-0.26-0.4-0.53-0.6-0.79c-0.88-2.65-2-5.19-3.83-7.35c-1.55-3.11-3.08-6.23-4.64-9.34c-2.55-5.1-2.88-10.12-0.05-15.31
	c3.69-6.77,7.13-13.66,10.69-20.5c1.83-1.55,2.18-3.87,3.09-5.89c0.7-0.97,1.4-1.93,2.11-2.9c5.61,10.83,11.21,21.67,16.84,32.5
	C77.41,107.92,78.57,108.59,80.1,108.49z"/>
<path class="st1" d="M80.1,108.49c-1.53,0.1-2.69-0.57-3.37-1.88C71.1,95.79,65.5,84.95,59.89,74.11
	c4.94-9.49,9.69-19.09,14.9-28.43c1.99-3.56,5.6-5.24,9.93-4.56c0.46,2.02,2.11,1.35,3.34,1.36c9.16,0.06,18.32,0.05,27.48,0.06
	c-0.03,1.23-0.24,2.37-1.48,3.01c-9.6,0-19.21,0-28.81,0c0,0.49,0,0.98,0,1.47c9.34,0,18.68,0,28.03,0
	c-0.1,0.61-0.04,1.31-0.32,1.82c-4.34,8.21-8.71,16.41-13.11,24.59c-1.89,3.52-1.93,3.53,1.98,3.53
	c15.74,0.01,31.49-0.02,47.23,0.02c6.36,0.01,12.73,0.16,19.09,0.24c-1.29,0.69-2.69,0.41-4.04,0.41
	c-20.96,0.02-41.92,0.07-62.88-0.02c-2.72-0.01-4.11,0.79-5.42,3.29c-4.37,8.35-8.65,16.76-13.56,24.83
	C81.6,106.78,79.98,106.96,80.1,108.49z"/>
<path class="st2" d="M116.15,180.97c-2.7-8.3-7.96-15.31-11.75-23.07c-1.5-3.08-2.94-6.22-4.92-9.11c-1.84-2.68-1.08-3.53,2.49-3.59
	c0.52,0.66,1.25,0.72,2.01,0.72c8.79,0,17.59,0,26.38,0c0.86,0,1.76,0.06,2.3-0.84c-0.01-0.24-0.05-0.48-0.11-0.72
	c0,0,0.11,0.05,0.11,0.05c11.04,0,22.08,0.01,33.12,0.01c1.48,0.75,2.95,1.5,4.43,2.26c-4.77,9.14-9.41,18.35-14.35,27.4
	c-2.52,4.62-6.27,7.39-12.06,7.17C134.6,180.9,125.37,181.04,116.15,180.97z"/>
<path class="st3" d="M114.05,45.55c1.24-0.64,1.44-1.78,1.48-3.01c0.89-0.05,1.38-0.53,1.46-1.42c9.6-0.04,19.2-0.18,28.8-0.08
	c4.54,0.05,7.78,2.82,9.85,6.51c4.43,7.91,8.6,15.97,12.64,24.09c0.81,1.62,2.58,3.82-0.15,5.59c-6.37-0.08-12.73-0.23-19.09-0.24
	c-15.74-0.04-31.49-0.01-47.23-0.02c-3.91,0-3.87-0.01-1.98-3.53c4.4-8.18,8.77-16.38,13.11-24.59c0.27-0.52,0.22-1.21,0.31-1.82
	C113.53,46.53,113.79,46.04,114.05,45.55z"/>
<path class="st4" d="M170.22,146.68c-1.48-0.75-2.95-1.5-4.43-2.26c-3.11-3.08-6.9-5.26-10.53-7.56c-4.7-2.97-8.82-6.88-14.12-8.89
	c-4.72-4.44-10.61-7.24-15.69-11.18c-1.44-1.11-3.73-1.87-2.95-4.16c0.71-2.1,2.87-2.6,4.96-2.61c17.7-0.02,35.39-0.08,53.09,0.02
	c5.41,0.03,7.48,3.08,5.17,7.83C180.95,127.69,175.89,137.35,170.22,146.68z"/>
<path class="st3" d="M141.14,127.98c5.3,2.01,9.42,5.92,14.12,8.89c3.64,2.3,7.42,4.48,10.53,7.56c-11.04,0-22.08-0.01-33.12-0.01
	C135.5,138.94,138.32,133.46,141.14,127.98z"/>
<path class="st1" d="M116.99,41.12c-0.08,0.89-0.57,1.37-1.46,1.42c-9.16-0.01-18.32,0-27.48-0.06c-1.22-0.01-2.87,0.66-3.34-1.36
	C95.48,41.12,106.24,41.12,116.99,41.12z"/>
<path class="st1" d="M132.67,145.09c-0.54,0.9-1.44,0.84-2.3,0.84c-8.79,0-17.59,0-26.38,0c-0.76,0-1.49-0.06-2.01-0.72
	C112.21,145.17,122.44,145.13,132.67,145.09z"/>
<path class="st1" d="M114.05,45.55c-0.26,0.49-0.53,0.98-0.79,1.47c-9.34,0-18.68,0-28.02,0c0-0.49,0-0.98,0-1.47
	C94.85,45.55,104.45,45.55,114.05,45.55z"/>
</svg>
