<svg width="44" height="73" viewBox="0 0 44 73" fill="none" xmlns="http://www.w3.org/2000/svg">
<g id="Group 86">
<g id="layer1">
<g id="g2058">
<path id="path40" d="M40.6781 13.1437C39.1358 6.39262 35.271 0.900899 34.7383 0.0131378C33.896 1.27252 30.8136 6.12423 29.2466 11.4921C27.5351 17.5 27.2832 22.8265 27.8736 28.0499C28.46 33.2938 30.6753 38.6824 30.6753 38.6824C31.8521 41.4901 33.6152 44.5251 34.7631 46.0115C36.4457 43.8231 40.3126 37.2991 41.5183 28.7931C42.1893 24.0446 42.2182 19.8949 40.6781 13.1437ZM34.7383 44.3186C33.9806 42.8941 32.8038 40.1895 32.6923 35.9778C32.6634 31.9312 34.2882 28.4421 34.7631 27.7195C35.1863 28.4421 36.5861 31.477 36.7533 35.6268C36.8669 39.6733 35.5208 42.8734 34.7383 44.3186ZM40.23 24.602C40.1722 27.1827 39.8646 29.908 39.4723 31.539C39.6127 28.7312 39.2762 24.7879 38.6321 21.691C37.9879 18.6148 36.1649 13.4534 34.7094 11.0792C33.3654 13.3502 31.7096 17.8096 30.8425 21.6704C29.9712 25.5311 29.9465 30.2177 29.9465 31.6216C29.7152 30.4448 29.1372 26.2124 29.3003 21.98C29.4365 18.4909 30.2541 14.878 30.7021 13.2263C32.4115 7.71395 34.346 4.18355 34.7094 3.62611C35.0728 4.18355 37.509 8.53977 38.7725 13.1024C40.0298 17.6651 40.2837 22.042 40.23 24.602Z" fill="#0079C2"/>
<path id="path42" d="M37.3583 47.5829H25.6337V55.4489C25.644 55.4489 25.6523 55.4283 25.6626 55.4283C28.425 52.6617 32.9051 52.6617 35.6695 55.4283C38.4319 58.1741 38.4319 62.6542 35.6695 65.4207C35.6571 65.4414 35.6447 65.4414 35.6323 65.462C35.6179 65.462 35.6034 65.4827 35.591 65.5033C32.8349 68.2285 29.2343 69.5911 25.6337 69.5911C22.0166 69.5911 18.3995 68.2285 15.6412 65.462C10.7771 60.6103 10.2011 53.0746 13.909 47.5829C14.4087 46.8397 14.9847 46.1377 15.6412 45.4771C18.3995 42.7106 22.0166 41.3479 25.6337 41.3479V22.4366C11.7351 22.4366 0.46875 33.6884 0.46875 47.5829C0.46875 61.4774 11.7351 72.7499 25.6337 72.7499C32.8803 72.7499 39.4084 69.6737 44 64.7807V47.5829H37.3583Z" fill="#0079C2"/>
</g>
</g>
</g>
</svg>
