<?xml version="1.0" encoding="utf-8"?>
<!-- Generator: Adobe Illustrator 26.0.2, SVG Export Plug-In . SVG Version: 6.00 Build 0)  -->
<svg version="1.1" id="Layer_1" xmlns="http://www.w3.org/2000/svg" xmlns:xlink="http://www.w3.org/1999/xlink" x="0px" y="0px"
	 viewBox="0 0 229.71 264.15" style="enable-background:new 0 0 229.71 264.15;" xml:space="preserve">
<style type="text/css">
	.st0{fill:#EEAC40;}
	.st1{fill:#292724;}
</style>
<path class="st0" d="M139.81,129.87c0-6.32,0.05-12.64-0.03-18.96c-0.02-1.64,0.3-2.48,1.95-3.4c11.56-6.48,23.01-13.16,34.43-19.87
	c1.97-1.16,3.52-1.18,5.48-0.03c11.46,6.67,22.96,13.28,34.51,19.79c1.52,0.86,2.11,1.76,2.11,3.46
	c-0.03,13.14,0.04,26.28,0.02,39.42c0,2.23-0.67,4.13-2.89,5.37c-10.85,6.07-21.72,12.12-32.41,18.46c-2.85,1.69-4.91,1.68-7.7,0.02
	c-10.4-6.19-20.89-12.22-31.45-18.12c-3.01-1.68-4.18-3.81-4.09-7.18c0.17-6.32,0.05-12.64,0.05-18.96
	C139.79,129.87,139.8,129.87,139.81,129.87z"/>
<path class="st0" d="M95.61,201.65c0,6.49-0.08,12.99,0.04,19.48c0.04,2.27-0.65,3.63-2.69,4.79C82,232.16,71.09,238.5,60.24,244.94
	c-2.11,1.25-3.94,1.51-6.04,0.31c-11.55-6.56-23.09-13.11-34.67-19.63c-1.75-0.99-1.98-2.51-1.98-4.24
	c-0.02-13.16-0.02-26.31-0.07-39.47c-0.01-1.83,0.58-3.14,2.22-4.11c11.51-6.85,23.06-13.61,34.97-19.74
	c1.77-0.91,3.38-0.82,5.17,0.22c11.35,6.59,22.73,13.12,34.16,19.59c1.66,0.94,1.68,2.28,1.68,3.8c-0.01,6.66,0,13.32,0,19.98
	C95.65,201.65,95.63,201.65,95.61,201.65z"/>
<path class="st0" d="M98.37,61.42c0-6.33,0.1-12.65-0.05-18.97c-0.06-2.45,0.68-3.95,2.87-5.2c11.26-6.4,22.44-12.93,33.62-19.47
	c1.9-1.11,3.44-1.21,5.48-0.01c10.54,6.23,21.14,12.37,31.83,18.33c3.3,1.84,4.61,4.14,4.54,7.96c-0.22,11.81-0.19,23.64-0.02,35.45
	c0.04,3.06-0.96,4.91-3.57,6.4c-10.96,6.26-21.87,12.61-32.73,19.03c-1.98,1.17-3.59,1.19-5.53,0.05
	c-11.45-6.72-22.92-13.4-34.43-20.01c-1.92-1.11-2.14-2.62-2.1-4.58c0.1-6.32,0.04-12.65,0.04-18.97
	C98.33,61.42,98.35,61.42,98.37,61.42z"/>
<path class="st0" d="M73.34,101.86c-0.34-0.66-0.34-1.3,0.33-1.71c6.66-4.02,13.32-8.05,20.01-12.01c2.3-1.36,4.4-1.28,6.92,0.23
	c11.04,6.64,22.21,13.08,33.47,19.35c1.63,0.91,2.11,1.69,2.11,3.33c-0.01,13.31,0.03,26.61,0.04,39.92c0,2.09-0.54,3.66-2.66,4.86
	c-10.77,6.07-21.46,12.28-32.11,18.57c-2.98,1.76-5.44,2.11-8.65,0.14c-10.3-6.29-20.73-12.39-31.34-18.16
	c-2.45-1.33-3.48-2.74-3.64-5.22c-0.07-1.16-0.21-2.32-0.21-3.48c0-11.81,0.06-23.62-0.01-35.43c-0.01-2.4,0.36-3.82,3.04-4.75
	c2.92-1.01,5.48-3.07,8.16-4.72c1.42-0.88,2.78-1.87,4.56-0.94c-3,3.18-7.11,4.65-10.72,6.88c-1.75,1.08-2.62,2.2-2.61,4.32
	c0.09,12.32,0.11,24.64,0.03,36.96c-0.01,2.29,0.79,3.56,2.8,4.69c10.43,5.87,20.8,11.84,31.1,17.91c2.11,1.25,3.71,1.4,5.89,0.1
	c10.44-6.18,20.97-12.21,31.53-18.2c1.77-1,2.68-2.09,2.66-4.24c-0.09-12.31-0.04-24.63-0.07-36.95c-0.01-2.08-0.68-3.64-2.79-4.8
	c-8.58-4.73-17.44-9.14-25.41-14.77c-6.68-4.72-11.89-4.13-18.15,0.34C83.27,97.22,78.71,100.39,73.34,101.86z"/>
<path class="st0" d="M177.26,201.49c0,6.48-0.08,12.97,0.04,19.45c0.05,2.49-0.92,3.78-3.12,5.01
	c-10.24,5.68-20.41,11.47-30.44,17.51c-3.77,2.27-6.85,2.82-10.88,0.35c-10.29-6.31-20.84-12.18-31.33-18.17
	c-1.91-1.09-2.91-2.37-2.75-4.75c0.76-11.12,0.56-22.26,0.18-33.38c-0.2-6.01,0.97-10.02,6.86-13c10.3-5.22,20.13-11.35,30.11-17.17
	c1.56-0.91,2.38-0.94,4.19,0.15c10.93,6.55,22.04,12.81,33.22,18.92c3.09,1.69,4.09,3.79,3.98,7.14
	C177.12,189.52,177.27,195.51,177.26,201.49z M101.14,201.38c0,5.82,0.15,11.65-0.06,17.46c-0.1,2.83,0.73,4.58,3.27,5.99
	c10.16,5.63,20.31,11.3,30.26,17.3c2.77,1.67,4.62,1.35,7.15-0.15c10-5.93,20.07-11.73,30.2-17.43c2.31-1.3,3.24-2.77,3.2-5.47
	c-0.16-11.97-0.14-23.95-0.03-35.93c0.02-2.34-0.87-3.58-2.81-4.69c-10.67-6.09-21.28-12.28-31.88-18.5
	c-1.77-1.04-3.18-1.05-5.02,0.04c-10.44,6.16-20.94,12.21-31.48,18.2c-2.16,1.23-2.91,2.76-2.84,5.22
	C101.26,189.4,101.15,195.39,101.14,201.38z"/>
<path class="st1" d="M73.34,101.86c5.36-1.47,9.92-4.65,14.29-7.77c6.26-4.47,11.48-5.06,18.15-0.34
	c7.97,5.63,16.83,10.04,25.41,14.77c2.11,1.17,2.79,2.72,2.79,4.8c0.04,12.32-0.02,24.63,0.07,36.95c0.02,2.15-0.89,3.24-2.66,4.24
	c-10.55,5.99-21.08,12.03-31.53,18.2c-2.18,1.29-3.78,1.14-5.89-0.1c-10.31-6.08-20.68-12.05-31.1-17.91c-2-1.13-2.81-2.41-2.8-4.69
	c0.08-12.32,0.06-24.64-0.03-36.96c-0.02-2.12,0.86-3.24,2.61-4.32c3.61-2.24,7.72-3.7,10.72-6.88L73.34,101.86z"/>
<path class="st1" d="M101.15,201.38c0-5.99,0.12-11.98-0.05-17.96c-0.07-2.45,0.68-3.99,2.84-5.22
	c10.54-5.99,21.04-12.04,31.48-18.2c1.84-1.08,3.25-1.07,5.02-0.04c10.6,6.22,21.21,12.4,31.88,18.5c1.94,1.11,2.83,2.35,2.81,4.69
	c-0.11,11.98-0.12,23.95,0.03,35.93c0.04,2.7-0.9,4.18-3.2,5.47c-10.13,5.7-20.21,11.5-30.2,17.43c-2.52,1.5-4.37,1.82-7.15,0.15
	c-9.95-6-20.1-11.67-30.26-17.3c-2.54-1.41-3.38-3.15-3.27-5.99C101.29,213.03,101.14,207.2,101.15,201.38z"/>
</svg>
