<svg width="131" height="113" viewBox="0 0 131 113" fill="none" xmlns="http://www.w3.org/2000/svg">
<path fill-rule="evenodd" clip-rule="evenodd" d="M118.21 1.11528C114.11 3.28286 112.647 8.49757 114.929 12.8115C118.006 18.6284 126.968 18.6151 129.935 12.7889C133.927 4.95277 125.958 -2.9809 118.21 1.11528ZM124.414 1.95146C125.682 1.95146 128.557 4.9641 129.056 6.81633C130.938 13.8044 122.08 18.4697 117.289 13.0141C113.43 8.62075 117.769 0.180049 123.076 1.75634C123.436 1.86375 124.039 1.95146 124.414 1.95146ZM0.700672 4.21562C-0.0100645 4.92616 -0.0721672 9.7043 0.0495747 54.1059L0.184133 103.21L1.24334 105.188C4.30857 110.908 11.2898 113.776 18.9561 112.463C25.4912 111.344 24.6025 112.129 59.4789 76.6431C93.7441 41.7785 93.2872 42.1865 96.7876 43.3414C100.148 44.4501 99.9928 42.9078 99.9928 75.2338C99.9928 91.2982 99.8573 104.442 99.6912 104.442C99.2422 104.442 77.8131 83.6799 77.8131 83.2448C77.8131 83.0394 79.9202 82.145 82.4955 81.2576C87.5717 79.5084 88.3376 78.5431 86.1911 76.6012C84.4281 75.0062 67.1338 75.8414 65.6143 77.5946C62.6299 81.0383 64.2579 98.1839 67.5459 97.9419C69.825 97.7739 69.6485 98.0764 71.7536 90.7178L72.6492 87.5874L85.6169 99.5872C107.614 119.942 105.491 124.04 105.31 61.5735L105.168 13.0382L104.109 11.0608C100.946 5.15726 93.4424 2.28259 85.4489 3.91259C79.8532 5.05329 79.66 5.22772 45.9744 39.504C9.94025 76.17 10.5973 75.6344 6.56992 71.6087L5.3594 70.398V41.1024C5.3594 24.9897 5.49297 11.8063 5.65611 11.8063C6.06176 11.8063 27.5391 32.5642 27.5391 32.9559C27.5391 33.1279 25.432 34.0089 22.8567 34.9141C17.7781 36.6988 17.0013 37.6931 19.1596 39.6459C20.8946 41.2158 38.2056 40.3589 39.7379 38.6269C40.947 37.261 41.26 30.6385 40.5261 21.9578L40.2052 18.1642L37.9384 18.3111C35.4208 18.4746 35.7195 17.9888 33.6858 25.2336C32.634 28.9814 33.7105 29.6545 19.1172 16.1178C12.032 9.54563 5.872 4.01803 5.42791 3.83375C3.95074 3.22127 1.49717 3.41935 0.700672 4.21562ZM119.708 8.60351C119.708 11.0672 119.911 12.7918 120.201 12.7918C120.472 12.7918 120.694 12.0015 120.694 11.0362C120.694 8.51284 123.595 8.63652 124.323 11.1904C124.574 12.0709 124.969 12.7918 125.201 12.7918C125.937 12.7918 125.655 9.9827 124.852 9.317C124.153 8.73704 124.153 8.63751 124.852 8.24627C127.143 6.96513 125.293 4.41518 122.074 4.41518H119.708V8.60351ZM124.144 6.13979C125.014 7.18785 123.943 8.35713 122.112 8.35713C120.865 8.35713 120.694 8.17876 120.694 6.8789C120.694 5.19421 122.957 4.70935 124.144 6.13979ZM92.2649 9.3781C94.3794 9.96496 97.7211 12.7534 98.7927 14.8244C99.3417 15.8863 99.4999 18.5239 99.4999 26.6217V37.0511L98.391 36.7283C92.2408 34.9367 94.8333 32.8007 55.9912 71.6594C19.5362 108.129 20.3642 107.387 16.1417 107.396C12.7236 107.403 8.22551 104.585 6.54971 101.387C5.8306 100.015 5.46931 79.3122 6.16477 79.3122C6.33679 79.3122 7.31319 79.5626 8.33542 79.8686C12.794 81.2044 10.7362 82.9788 48.769 45.0035C87.8576 5.97422 85.8693 7.60274 92.2649 9.3781ZM82.8149 17.8779C82.3999 18.3776 82.7311 18.9753 84.2364 20.4446L86.1985 22.3599L83.8726 24.7207L81.5467 27.0814L79.5136 25.0863C77.6929 23.3001 77.4119 23.1744 76.8229 23.884C75.8184 25.0942 85.0516 34.3454 86.1596 33.2382C86.8092 32.5883 86.6559 32.2626 84.8175 30.3902L82.7419 28.2763L85.0955 25.9589L87.4485 23.6416L89.5008 25.6933C91.2841 27.4766 91.6577 27.6584 92.3522 27.0824C93.0634 26.4921 92.6499 25.9166 88.5723 21.8228C83.6819 16.9136 83.6395 16.8846 82.8149 17.8779ZM69.3139 31.0278C66.6153 33.7256 66.7543 36.8969 69.7037 39.9164C73.0883 43.3819 76.8062 43.5415 79.5022 40.3382C84.8618 33.9709 75.2008 25.1425 69.3139 31.0278ZM76.503 32.4991C78.8428 34.5534 79.5752 36.4568 78.7156 38.2499C77.1955 41.4212 73.5724 41.2847 70.7664 37.9508C66.9924 33.4669 72.0883 28.6242 76.503 32.4991ZM61.5263 39.5045C59.5725 40.2268 58.0978 41.912 58.0978 43.4223C58.0978 44.5467 57.8987 44.7862 57.0431 44.6911C54.9079 44.4536 55.7685 45.7081 62.0084 51.9329C67.6001 57.5103 68.4853 58.2144 69.1823 57.636C69.893 57.0461 69.7294 56.7259 67.6292 54.5942C65.7365 52.673 65.4718 52.2113 66.2624 52.2113C69.0157 52.2113 71.2839 48.5207 70.445 45.4056C69.4366 41.6627 64.5082 38.4017 61.5263 39.5045ZM66.013 42.7029C69.8905 45.9648 69.2685 50.7331 64.9656 50.7331C63.1149 50.7331 59.5765 46.7547 59.5765 44.6738C59.5765 41.2419 63.0222 40.1869 66.013 42.7029ZM49.012 51.2633C45.0537 54.7376 47.181 61.5725 52.681 63.0532C57.0879 64.2392 61.4795 59.8735 60.3611 55.4191C59.8712 53.4668 58.0988 54.7918 58.4345 56.8594C58.9697 60.1588 54.7078 62.451 51.9077 60.3697C50.9959 59.6917 51.1196 59.4877 54.5427 56.0276C57.9243 52.6105 58.083 52.3523 57.2535 51.6284C54.4968 49.2228 51.4888 49.0893 49.012 51.2633ZM54.6476 52.2015C55.2519 52.5834 54.897 53.1653 52.7082 55.3812C49.7844 58.3416 48.7331 58.3751 48.7331 55.5088C48.7331 52.6243 52.2271 50.6705 54.6476 52.2015ZM41.1047 59.5897C40.0968 60.7038 40.2417 61.2335 43.1807 67.1671C45.311 71.4683 45.3154 71.4668 39.628 68.4285L34.8436 65.8732L33.5429 67.173L32.2422 68.4734L36.9009 73.1495C41.0387 77.3038 41.6415 77.7438 42.2975 77.088C42.9535 76.4322 42.5981 75.9099 39.1189 72.4109C36.9645 70.2443 35.3671 68.4719 35.5692 68.4719C35.7707 68.4719 38.1804 69.5978 40.9233 70.974C47.735 74.3912 48.1825 73.9891 45.0591 67.2617C43.8269 64.6073 42.8185 62.3027 42.8185 62.1401C42.8185 61.9775 44.4696 63.4838 46.4875 65.4878C49.6932 68.6714 50.2566 69.0479 50.9525 68.4704C51.6603 67.883 51.2408 67.3001 47.1701 63.2133C42.0762 58.0996 42.3211 58.246 41.1047 59.5897ZM26.4079 73.7866C24.2417 76.0468 24.1703 79.9538 26.3094 79.1329C26.8998 78.9067 27.0654 78.4711 26.8653 77.6739C26.4449 75.9986 27.8171 74.2927 29.4352 74.4799C30.9252 74.6524 31.5334 76.8313 30.4545 78.1311C29.4682 79.3186 30.7108 80.2095 31.8789 79.1526C33.603 77.5931 35.9181 78.4031 35.9181 80.5663C35.9181 82.078 34.4961 83.1566 32.2594 83.3409C29.9636 83.5306 29.4278 84.4915 31.1746 85.2873C32.7868 86.0215 34.9654 85.1744 36.6673 83.1527C39.041 80.3322 37.7378 76.3558 34.4395 76.3558C33.2171 76.3558 32.9608 76.1557 32.9608 75.2003C32.9608 72.3049 28.7072 71.3874 26.4079 73.7866ZM20.0808 80.5742C19.3839 81.2709 19.4189 81.7912 20.4559 86.1175C21.0853 88.7434 21.7305 91.4461 21.8892 92.1236C22.1164 93.0904 21.3766 92.5631 18.4543 89.6747C15.1461 86.4063 14.6468 86.0766 13.9913 86.732C13.3362 87.3873 13.7764 87.9905 17.9279 92.1236C24.8514 99.0166 25.2127 98.2804 21.798 84.2397C21.5634 83.2739 22.3052 83.7977 25.2304 86.6635C28.4909 89.8575 29.0631 90.2359 29.7586 89.6584C30.4663 89.071 30.0469 88.4881 25.9762 84.4013C20.936 79.3418 21.1647 79.4901 20.0808 80.5742Z" fill="#2B2E35"/>
</svg>
