<svg width="56" height="57" viewBox="0 0 56 57" fill="none" xmlns="http://www.w3.org/2000/svg">
<g id="Group 87">
<path id="Vector" d="M24.3403 55.9609C24.1461 56.0356 23.9444 56.002 23.7503 56.002C16.0431 56.002 8.33587 56.002 0.628667 56.002C0.509176 56.002 0.389685 56.0057 0.270193 55.9982C0.0312103 55.987 0.0125394 55.9721 0.00507122 55.707C0.00133711 55.5464 0.00507122 55.3896 0.00507122 55.229C0.00507122 37.0663 0.00507122 18.9073 0.00507122 0.744632C0.00507122 -0.110479 -0.106952 0.00901224 0.72202 0.00901224C8.36947 0.00527813 16.0169 0.00527813 23.6644 0.00901224C23.8847 0.00901224 24.1013 0.0239441 24.3216 0.0276782C24.3253 0.266661 24.3291 0.505649 24.3291 0.744632C24.3291 4.20988 24.3253 7.67514 24.3328 11.1404C24.3365 12.1971 24.2656 13.2464 24.0639 14.2882C23.7913 15.6848 23.3507 17.0216 22.6039 18.2427C21.1252 20.6624 18.9557 21.9506 16.1327 22.1485C15.5987 22.1859 15.061 22.1971 14.5233 22.2195C14.1275 22.2344 14.1237 22.2382 14.1125 22.6265C14.1125 22.6862 14.1125 22.746 14.1125 22.8057C14.1125 26.2897 14.1125 29.7736 14.1125 33.2612C14.1125 33.8438 14.12 33.8214 14.6652 33.8326C15.4195 33.8475 16.1775 33.8251 16.928 33.9558C18.642 34.2508 20.1506 34.9491 21.3828 36.2037C22.3201 37.1559 22.9848 38.2836 23.4441 39.5271C24.0527 41.1663 24.3403 42.8616 24.3365 44.6129C24.3291 48.1566 24.3328 51.7003 24.3365 55.2477C24.3291 55.4829 24.3365 55.7219 24.3403 55.9609Z" fill="#121239"/>
<path id="Vector_2" d="M37.9343 0.0364538C38.1322 0.0289856 38.3301 0.0140501 38.5318 0.0140501C44.1255 0.0140501 49.7229 0.010316 55.3166 0.0140501C56.0784 0.0140501 55.9962 -0.0830367 55.9962 0.667519C55.9962 18.9049 55.9962 37.1385 55.9962 55.3759C55.9962 55.4954 55.9999 55.6149 55.9962 55.7344C55.9887 55.9697 55.9589 55.9958 55.7124 56.0033C55.5518 56.007 55.395 56.007 55.2344 56.007C49.7005 56.007 44.1628 56.007 38.6289 56.007C38.3936 56.007 38.1509 56.0443 37.9194 55.9622C37.9231 55.7232 37.9269 55.4842 37.9269 55.2452C37.9269 51.8995 37.9194 48.5537 37.9306 45.208C37.9381 43.2961 37.8484 41.388 37.5833 39.4948C37.4003 38.1916 37.1278 36.9108 36.7207 35.6598C36.4295 34.7637 36.0113 33.9347 35.4586 33.1692C33.9986 31.1528 32.195 29.5322 30.018 28.3261C29.8649 28.2402 29.6819 28.1954 29.5774 28.0385C29.6483 27.8705 29.8126 27.8294 29.9508 27.7547C31.7917 26.754 33.3712 25.4359 34.723 23.8377C35.7125 22.6689 36.4594 21.3769 36.8813 19.8907C37.3667 18.1805 37.6393 16.4367 37.8036 14.6704C37.9343 13.2627 37.9381 11.8474 37.9343 10.4359C37.9269 7.80713 37.9306 5.17832 37.9343 2.54951C37.9269 1.7056 37.9306 0.86916 37.9343 0.0364538Z" fill="#121239"/>
<path id="Vector_3" d="M37.9408 0.0373377C37.937 0.873778 37.9333 1.71022 37.9333 2.54666C37.9333 5.17547 37.9296 7.80428 37.9333 10.4331C37.937 11.8483 37.9333 13.2598 37.8026 14.6676C37.6383 16.4338 37.3657 18.1776 36.8803 19.8879C36.4583 21.374 35.7115 22.666 34.722 23.8348C33.3702 25.433 31.7907 26.7511 29.9498 27.7519C29.8153 27.8266 29.6473 27.8676 29.5764 28.0357C29.6847 28.1925 29.8676 28.2373 30.017 28.3232C32.194 29.5293 34.0013 31.1499 35.4576 33.1663C36.0102 33.9318 36.4285 34.7608 36.7197 35.657C37.1267 36.9079 37.3993 38.1887 37.5823 39.4919C37.8474 41.3888 37.937 43.2932 37.9296 45.2051C37.9184 48.5509 37.9258 51.8966 37.9258 55.2424C37.9258 55.4814 37.9184 55.7204 37.9184 55.9593C37.7615 55.9705 37.6047 55.9892 37.4441 55.9892C33.2358 55.9892 29.0237 55.9892 24.8154 55.9892C24.6585 55.9892 24.5017 55.9705 24.3411 55.9593C24.3374 55.7204 24.3299 55.4814 24.3299 55.2424C24.3299 51.6987 24.3225 48.1551 24.3299 44.6077C24.3337 42.8564 24.0462 41.1611 23.4375 39.5218C22.9745 38.2783 22.3135 37.1506 21.3763 36.1984C20.144 34.9475 18.6392 34.2492 16.9215 33.9505C16.1709 33.8198 15.4129 33.8422 14.6586 33.8273C14.1134 33.8161 14.106 33.8385 14.106 33.256C14.106 29.772 14.106 26.2881 14.106 22.8005C14.106 22.7407 14.106 22.681 14.106 22.6212C14.1172 22.2329 14.1209 22.2291 14.5167 22.2142C15.0544 22.1918 15.5921 22.1806 16.1261 22.1433C18.9491 21.9453 21.1186 20.6571 22.5973 18.2374C23.3441 17.0163 23.7848 15.6795 24.0574 14.283C24.259 13.2449 24.3299 12.1956 24.3262 11.1351C24.3187 7.66985 24.3225 4.2046 24.3225 0.739352C24.3225 0.500369 24.315 0.261387 24.315 0.0224037C24.4718 0.0149355 24.6324 0 24.7892 0C29.0125 0 33.2321 0 37.4553 0C37.6234 0.0112023 37.7802 0.0261353 37.9408 0.0373377Z" fill="#F8423A"/>
</g>
</svg>
