<?xml version="1.0" encoding="UTF-8" standalone="no" ?>
<!DOCTYPE svg PUBLIC "-//W3C//DTD SVG 1.1//EN" "http://www.w3.org/Graphics/SVG/1.1/DTD/svg11.dtd">
<svg xmlns="http://www.w3.org/2000/svg" xmlns:xlink="http://www.w3.org/1999/xlink" version="1.1" width="66" height="36" viewBox="0 0 66 36" xml:space="preserve">
<desc>Created with Fabric.js 5.3.0</desc>
<defs>
</defs>
<g transform="matrix(1.0201100792 0 0 1.0361948622 32.742531761 17.764331761)" id="re5thqbFUnw0WFgmVp7JU"  >
<g style="" vector-effect="non-scaling-stroke"   >
		<g transform="matrix(1 0 0 1 -27.02285 -10.6352)" id="kF98T6Z_Eym8EpiXvLQmt"  >
<path style="stroke: none; stroke-width: 1; stroke-dasharray: none; stroke-linecap: butt; stroke-dashoffset: 0; stroke-linejoin: miter; stroke-miterlimit: 4; fill: rgb(0,94,162); fill-rule: nonzero; opacity: 1;" vector-effect="non-scaling-stroke"  transform=" translate(-28.5922, -26.02305)" d="M 33.154 32.2591 L 30.7112 32.2591 L 30.7112 27.0373 L 26.4732 27.0373 L 26.4732 32.2591 L 24.0304 32.2591 L 24.0304 19.787 L 26.4732 19.787 L 26.4732 24.8859 L 30.7112 24.8859 L 30.7112 19.787 L 33.154 19.787 L 33.154 32.2591 Z" stroke-linecap="round" />
</g>
		<g transform="matrix(1 0 0 1 -14.4417 -10.6352)" id="PRRy21svk9N8nd0NUfWbU"  >
<path style="stroke: none; stroke-width: 1; stroke-dasharray: none; stroke-linecap: butt; stroke-dashoffset: 0; stroke-linejoin: miter; stroke-miterlimit: 4; fill: rgb(0,94,162); fill-rule: nonzero; opacity: 1;" vector-effect="non-scaling-stroke"  transform=" translate(-41.17335, -26.02305)" d="M 45.9202 32.2591 L 43.4774 32.2591 L 43.4774 24.2528 L 38.6072 32.2591 L 36.4265 32.2591 L 36.4265 19.787 L 38.8693 19.787 L 38.8693 27.7749 L 43.7396 19.787 L 45.9202 19.787 L 45.9202 32.2591 Z" stroke-linecap="round" />
</g>
		<g transform="matrix(1 0 0 1 -1.6785 -10.6352)" id="1pBUDQkl16foFOssNCxlN"  >
<path style="stroke: none; stroke-width: 1; stroke-dasharray: none; stroke-linecap: butt; stroke-dashoffset: 0; stroke-linejoin: miter; stroke-miterlimit: 4; fill: rgb(0,94,162); fill-rule: nonzero; opacity: 1;" vector-effect="non-scaling-stroke"  transform=" translate(-53.93655, -26.02305)" d="M 58.6834 32.2591 L 56.2406 32.2591 L 56.2406 24.2528 L 51.3703 32.2591 L 49.1897 32.2591 L 49.1897 19.787 L 51.6325 19.787 L 51.6325 27.7749 L 56.5027 19.787 L 58.6834 19.787 L 58.6834 32.2591 Z" stroke-linecap="round" />
</g>
		<g transform="matrix(1 0 0 1 10.8996 -10.6352)" id="jpLPtFTxCz7NkpizxqQoz"  >
<path style="stroke: none; stroke-width: 1; stroke-dasharray: none; stroke-linecap: butt; stroke-dashoffset: 0; stroke-linejoin: miter; stroke-miterlimit: 4; fill: rgb(0,94,162); fill-rule: nonzero; opacity: 1;" vector-effect="non-scaling-stroke"  transform=" translate(-66.51465, -26.02305)" d="M 71.0764 32.2591 L 68.6336 32.2591 L 68.6336 21.9569 L 64.3957 21.9569 L 64.3957 32.2591 L 61.9529 32.2591 L 61.9529 19.787 L 71.0764 19.787 L 71.0764 32.2591 Z" stroke-linecap="round" />
</g>
		<g transform="matrix(1 0 0 1 22.7251 -10.6352)" id="Hwx0Iag3eg1JDcxq9XpCQ"  >
<path style="stroke: none; stroke-width: 1; stroke-dasharray: none; stroke-linecap: butt; stroke-dashoffset: 0; stroke-linejoin: miter; stroke-miterlimit: 4; fill: rgb(0,94,162); fill-rule: nonzero; opacity: 1;" vector-effect="non-scaling-stroke"  transform=" translate(-78.34015, -26.02305)" d="M 82.2758 21.9569 L 76.8442 21.9569 L 76.8442 32.2591 L 74.4014 32.2591 L 74.4014 19.787 L 82.2789 19.787 L 82.2789 21.9569 L 82.2758 21.9569 Z" stroke-linecap="round" />
</g>
		<g transform="matrix(1 0 0 1 -31.3066 10.46035)" id="XidyRLUJ7ZZAvymmFkcG2"  >
<linearGradient id="SVGID_6" gradientUnits="userSpaceOnUse" gradientTransform="matrix(1 0 0 1 0 0)"  x1="24.3067" y1="53.3268" x2="24.3067" y2="40.9088">
<stop offset="0%" style="stop-color:rgb(36,132,198);stop-opacity: 1"/>
<stop offset="18.8%" style="stop-color:rgb(0,94,162);stop-opacity: 1"/>
<stop offset="100%" style="stop-color:rgb(190,30,45);stop-opacity: 1"/>
</linearGradient>
<path style="stroke: none; stroke-width: 1; stroke-dasharray: none; stroke-linecap: butt; stroke-dashoffset: 0; stroke-linejoin: miter; stroke-miterlimit: 4; fill: url(#SVGID_6); fill-rule: nonzero; opacity: 1;" vector-effect="non-scaling-stroke"  transform=" translate(-24.30845, -47.1186)" d="M 24.8513 40.9102 L 23.7656 40.9102 L 23.7656 53.327 L 24.8513 53.327 L 24.8513 40.9102 Z" stroke-linecap="round" />
</g>
		<g transform="matrix(1 0 0 1 -25.1853 5.92965)" id="Ub1NvKhZ50kYZPrAS5LI4"  >
<path style="stroke: none; stroke-width: 1; stroke-dasharray: none; stroke-linecap: butt; stroke-dashoffset: 0; stroke-linejoin: miter; stroke-miterlimit: 4; fill: rgb(0,94,162); fill-rule: nonzero; opacity: 1;" vector-effect="non-scaling-stroke"  transform=" translate(-30.42975, -42.5879)" d="M 31.3751 43.9556 L 31.0821 43.9556 L 31.0821 42.7078 L 29.7774 42.7078 L 29.7774 43.9556 L 29.4844 43.9556 L 29.4844 41.2202 L 29.7774 41.2202 L 29.7774 42.4465 L 31.0821 42.4465 L 31.0821 41.2202 L 31.3751 41.2202 L 31.3751 43.9556 Z" stroke-linecap="round" />
</g>
		<g transform="matrix(1 0 0 1 -22.6654 5.92965)" id="ahVjJ2DU76vDqEBTTJ5zC"  >
<path style="stroke: none; stroke-width: 1; stroke-dasharray: none; stroke-linecap: butt; stroke-dashoffset: 0; stroke-linejoin: miter; stroke-miterlimit: 4; fill: rgb(0,94,162); fill-rule: nonzero; opacity: 1;" vector-effect="non-scaling-stroke"  transform=" translate(-32.94965, -42.5879)" d="M 34.0801 43.9556 L 33.7686 43.9556 L 33.5496 43.3378 L 32.3498 43.3378 L 32.1308 43.9556 L 31.8192 43.9556 L 32.8278 41.2202 L 33.0746 41.2202 L 34.0801 43.9556 Z M 33.4632 43.0828 L 32.9543 41.6382 L 32.4361 43.0828 L 33.4632 43.0828 Z" stroke-linecap="round" />
</g>
		<g transform="matrix(1 0 0 1 -20.4739 5.92965)" id="emMOGDsqm62PJLuN25Cqj"  >
<path style="stroke: none; stroke-width: 1; stroke-dasharray: none; stroke-linecap: butt; stroke-dashoffset: 0; stroke-linejoin: miter; stroke-miterlimit: 4; fill: rgb(0,94,162); fill-rule: nonzero; opacity: 1;" vector-effect="non-scaling-stroke"  transform=" translate(-35.14115, -42.5879)" d="M 36.159 41.2202 L 35.1627 43.5284 C 35.0394 43.8142 34.8605 43.9556 34.623 43.9556 L 34.3855 43.9556 L 34.3855 43.6944 L 34.5582 43.6944 C 34.6507 43.6944 34.7247 43.6729 34.7772 43.6298 C 34.8296 43.5868 34.879 43.5192 34.9191 43.4208 L 35.0301 43.1627 L 34.1233 41.2202 L 34.4348 41.2202 L 35.1751 42.8369 L 35.8413 41.2202 L 36.159 41.2202 Z" stroke-linecap="round" />
</g>
		<g transform="matrix(1 0 0 1 -18.22695 5.92965)" id="gyzUsBLjCtpp1tH5G8dKG"  >
<path style="stroke: none; stroke-width: 1; stroke-dasharray: none; stroke-linecap: butt; stroke-dashoffset: 0; stroke-linejoin: miter; stroke-miterlimit: 4; fill: rgb(0,94,162); fill-rule: nonzero; opacity: 1;" vector-effect="non-scaling-stroke"  transform=" translate(-37.3881, -42.5879)" d="M 38.2841 43.9556 L 37.9911 43.9556 L 37.9911 42.8369 C 37.6518 42.9076 37.3927 42.9414 37.2169 42.9414 C 37.0072 42.9414 36.8314 42.886 36.6957 42.7785 C 36.5569 42.6709 36.489 42.4957 36.489 42.2591 L 36.489 41.2202 L 36.782 41.2202 L 36.782 42.2037 C 36.782 42.5203 36.9517 42.6801 37.291 42.6801 C 37.439 42.6801 37.6703 42.6494 37.9942 42.5849 L 37.9942 41.2202 L 38.2872 41.2202 L 38.2872 43.9556 L 38.2841 43.9556 Z" stroke-linecap="round" />
</g>
		<g transform="matrix(1 0 0 1 -15.5929 5.92965)" id="KKg1UYI9ipRraKf_Qd_Gu"  >
<path style="stroke: none; stroke-width: 1; stroke-dasharray: none; stroke-linecap: butt; stroke-dashoffset: 0; stroke-linejoin: miter; stroke-miterlimit: 4; fill: rgb(0,94,162); fill-rule: nonzero; opacity: 1;" vector-effect="non-scaling-stroke"  transform=" translate(-40.02215, -42.5879)" d="M 40.9675 43.9556 L 40.6745 43.9556 L 40.6745 42.7078 L 39.3698 42.7078 L 39.3698 43.9556 L 39.0768 43.9556 L 39.0768 41.2202 L 39.3698 41.2202 L 39.3698 42.4465 L 40.6745 42.4465 L 40.6745 41.2202 L 40.9675 41.2202 L 40.9675 43.9556 Z" stroke-linecap="round" />
</g>
		<g transform="matrix(1 0 0 1 -12.9974 5.92965)" id="ikANdH2k1NnnS8hIemAZW"  >
<path style="stroke: none; stroke-width: 1; stroke-dasharray: none; stroke-linecap: butt; stroke-dashoffset: 0; stroke-linejoin: miter; stroke-miterlimit: 4; fill: rgb(0,94,162); fill-rule: nonzero; opacity: 1;" vector-effect="non-scaling-stroke"  transform=" translate(-42.61765, -42.5879)" d="M 43.5306 41.8657 C 43.5615 42.0101 43.5769 42.2498 43.5769 42.5879 C 43.5769 42.926 43.5615 43.1657 43.5306 43.3102 C 43.4998 43.4546 43.4227 43.5868 43.2993 43.7097 C 43.1204 43.888 42.8922 43.9802 42.6177 43.9802 C 42.3401 43.9802 42.1118 43.8911 41.9329 43.7097 C 41.8126 43.5899 41.7355 43.4577 41.7047 43.3133 C 41.6738 43.1688 41.6584 42.9291 41.6584 42.5879 C 41.6584 42.2468 41.6738 42.004 41.7047 41.8626 C 41.7355 41.7181 41.8126 41.586 41.9329 41.4661 C 42.1118 41.2879 42.3401 41.1956 42.6177 41.1956 C 42.8922 41.1956 43.1204 41.2848 43.2993 41.4661 C 43.4227 41.5891 43.4998 41.7212 43.5306 41.8657 Z M 43.25 43.2149 C 43.2746 43.092 43.2839 42.883 43.2839 42.5879 C 43.2839 42.2898 43.2715 42.0808 43.25 41.9609 C 43.2284 41.8411 43.1728 41.7366 43.0927 41.6505 C 42.9631 41.5214 42.8058 41.46 42.6177 41.46 C 42.4295 41.46 42.2722 41.5245 42.1427 41.6505 C 42.0594 41.7335 42.007 41.838 41.9854 41.9609 C 41.9638 42.0839 41.9514 42.2929 41.9514 42.5879 C 41.9514 42.8861 41.9638 43.0951 41.9854 43.2149 C 42.01 43.3379 42.0625 43.4393 42.1427 43.5253 C 42.2722 43.6544 42.4295 43.7159 42.6177 43.7159 C 42.8058 43.7159 42.9631 43.6513 43.0927 43.5253 C 43.1728 43.4393 43.2253 43.3379 43.25 43.2149 Z" stroke-linecap="round" />
</g>
		<g transform="matrix(1 0 0 1 -10.9216 5.92965)" id="0q0PHMKZY0UP3bjtIQRdm"  >
<path style="stroke: none; stroke-width: 1; stroke-dasharray: none; stroke-linecap: butt; stroke-dashoffset: 0; stroke-linejoin: miter; stroke-miterlimit: 4; fill: rgb(0,94,162); fill-rule: nonzero; opacity: 1;" vector-effect="non-scaling-stroke"  transform=" translate(-44.69345, -42.5879)" d="M 45.2209 42.717 L 44.166 42.717 L 44.166 42.4588 L 45.2209 42.4588 L 45.2209 42.717 Z" stroke-linecap="round" />
</g>
		<g transform="matrix(1 0 0 1 -8.72245 5.92965)" id="A779o8Yv2MZR-KYDPl32k"  >
<path style="stroke: none; stroke-width: 1; stroke-dasharray: none; stroke-linecap: butt; stroke-dashoffset: 0; stroke-linejoin: miter; stroke-miterlimit: 4; fill: rgb(0,94,162); fill-rule: nonzero; opacity: 1;" vector-effect="non-scaling-stroke"  transform=" translate(-46.8926, -42.5879)" d="M 47.8765 43.9556 L 47.5835 43.9556 L 47.5835 41.7243 L 46.1863 43.9556 L 45.9087 43.9556 L 45.9087 41.2202 L 46.2017 41.2202 L 46.2017 43.4485 L 47.5989 41.2202 L 47.8765 41.2202 L 47.8765 43.9556 Z" stroke-linecap="round" />
</g>
		<g transform="matrix(1 0 0 1 -6.076 5.9266)" id="48tBIVeU6Uo7dqGmJuNCZ"  >
<path style="stroke: none; stroke-width: 1; stroke-dasharray: none; stroke-linecap: butt; stroke-dashoffset: 0; stroke-linejoin: miter; stroke-miterlimit: 4; fill: rgb(0,94,162); fill-rule: nonzero; opacity: 1;" vector-effect="non-scaling-stroke"  transform=" translate(-49.53905, -42.58485)" d="M 50.4952 43.1627 C 50.4458 43.4178 50.3379 43.6145 50.1682 43.7589 C 49.9986 43.9034 49.7889 43.9771 49.5421 43.9771 C 49.2645 43.9771 49.0363 43.888 48.8574 43.7067 C 48.7371 43.5868 48.66 43.4547 48.6291 43.3102 C 48.5983 43.1657 48.5829 42.926 48.5829 42.5849 C 48.5829 42.2437 48.5983 42.0009 48.6291 41.8595 C 48.66 41.7151 48.7371 41.5829 48.8574 41.463 C 49.0363 41.2848 49.2645 41.1926 49.5421 41.1926 C 49.7919 41.1926 50.0017 41.2633 50.1682 41.4077 C 50.3348 41.5522 50.4458 41.752 50.4952 42.0071 L 50.1929 42.0071 C 50.1559 41.8349 50.0819 41.6997 49.9677 41.6014 C 49.8536 41.503 49.7117 41.4538 49.5421 41.4538 C 49.354 41.4538 49.1966 41.5184 49.0671 41.6444 C 48.9838 41.7274 48.9314 41.8319 48.9098 41.9548 C 48.8882 42.0777 48.8759 42.2867 48.8759 42.5818 C 48.8759 42.8799 48.8882 43.0889 48.9098 43.2088 C 48.9345 43.3317 48.9869 43.4331 49.0671 43.5192 C 49.1966 43.6483 49.354 43.7098 49.5421 43.7098 C 49.7117 43.7098 49.8536 43.6606 49.9708 43.5622 C 50.088 43.4639 50.1651 43.3286 50.1991 43.1565 L 50.4952 43.1565 L 50.4952 43.1627 Z" stroke-linecap="round" />
</g>
		<g transform="matrix(1 0 0 1 -3.60545 5.9266)" id="qsSRpzCK-W5jXV2ssJjMr"  >
<path style="stroke: none; stroke-width: 1; stroke-dasharray: none; stroke-linecap: butt; stroke-dashoffset: 0; stroke-linejoin: miter; stroke-miterlimit: 4; fill: rgb(0,94,162); fill-rule: nonzero; opacity: 1;" vector-effect="non-scaling-stroke"  transform=" translate(-52.0096, -42.58485)" d="M 52.9658 43.1627 C 52.9164 43.4178 52.8085 43.6145 52.6388 43.7589 C 52.4692 43.9034 52.2594 43.9771 52.0127 43.9771 C 51.7351 43.9771 51.5068 43.888 51.328 43.7067 C 51.2077 43.5868 51.1305 43.4547 51.0997 43.3102 C 51.0689 43.1657 51.0534 42.926 51.0534 42.5849 C 51.0534 42.2437 51.0689 42.0009 51.0997 41.8595 C 51.1305 41.7151 51.2077 41.5829 51.328 41.463 C 51.5068 41.2848 51.7351 41.1926 52.0127 41.1926 C 52.2625 41.1926 52.4723 41.2633 52.6388 41.4077 C 52.8054 41.5522 52.9164 41.752 52.9658 42.0071 L 52.6635 42.0071 C 52.6265 41.8349 52.5524 41.6997 52.4383 41.6014 C 52.3242 41.503 52.1823 41.4538 52.0127 41.4538 C 51.8245 41.4538 51.6672 41.5184 51.5377 41.6444 C 51.4544 41.7274 51.402 41.8319 51.3804 41.9548 C 51.3588 42.0777 51.3465 42.2867 51.3465 42.5818 C 51.3465 42.8799 51.3588 43.0889 51.3804 43.2088 C 51.4051 43.3317 51.4575 43.4331 51.5377 43.5192 C 51.6672 43.6483 51.8245 43.7098 52.0127 43.7098 C 52.1823 43.7098 52.3242 43.6606 52.4414 43.5622 C 52.5586 43.4639 52.6357 43.3286 52.6696 43.1565 L 52.9658 43.1565 L 52.9658 43.1627 Z" stroke-linecap="round" />
</g>
		<g transform="matrix(1 0 0 1 -1.36775 5.9312)" id="3WRc871eFLpr119vmgUOz"  >
<path style="stroke: none; stroke-width: 1; stroke-dasharray: none; stroke-linecap: butt; stroke-dashoffset: 0; stroke-linejoin: miter; stroke-miterlimit: 4; fill: rgb(0,94,162); fill-rule: nonzero; opacity: 1;" vector-effect="non-scaling-stroke"  transform=" translate(-54.2473, -42.58945)" d="M 55.3284 43.9556 L 55.0354 43.9556 L 55.0354 41.4815 L 54.1039 41.4815 L 54.1039 42.4189 C 54.1039 42.9783 54.0391 43.3717 53.9065 43.6053 C 53.7769 43.8388 53.5734 43.9556 53.3019 43.9556 L 53.1631 43.9556 L 53.1631 43.6944 L 53.2372 43.6944 C 53.3297 43.6944 53.4099 43.6759 53.4747 43.6391 C 53.5394 43.6022 53.6011 43.5346 53.6536 43.4424 C 53.706 43.3471 53.7492 43.2088 53.7769 43.0244 C 53.8047 42.84 53.8201 42.6094 53.8201 42.3328 L 53.8201 41.2233 L 55.3315 41.2233 L 55.3315 43.9556 L 55.3284 43.9556 Z" stroke-linecap="round" />
</g>
		<g transform="matrix(1 0 0 1 1.3743 5.92965)" id="s1G-UxFVX78aTQgc6KMaQ"  >
<path style="stroke: none; stroke-width: 1; stroke-dasharray: none; stroke-linecap: butt; stroke-dashoffset: 0; stroke-linejoin: miter; stroke-miterlimit: 4; fill: rgb(0,94,162); fill-rule: nonzero; opacity: 1;" vector-effect="non-scaling-stroke"  transform=" translate(-56.98935, -42.5879)" d="M 57.8422 43.9556 L 56.1365 43.9556 L 56.1365 41.2202 L 57.8422 41.2202 L 57.8422 41.4815 L 56.4295 41.4815 L 56.4295 42.4465 L 57.6324 42.4465 L 57.6324 42.7078 L 56.4295 42.7078 L 56.4295 43.6944 L 57.8422 43.6944 L 57.8422 43.9556 Z" stroke-linecap="round" />
</g>
		<g transform="matrix(1 0 0 1 3.76005 6.26005)" id="z3hJKemcJ6J3DilpkJUUO"  >
<path style="stroke: none; stroke-width: 1; stroke-dasharray: none; stroke-linecap: butt; stroke-dashoffset: 0; stroke-linejoin: miter; stroke-miterlimit: 4; fill: rgb(0,94,162); fill-rule: nonzero; opacity: 1;" vector-effect="non-scaling-stroke"  transform=" translate(-59.3751, -42.9183)" d="M 58.1691 43.6944 L 58.4128 43.6944 C 58.6441 43.3348 58.7582 42.8154 58.7582 42.1423 L 58.7582 41.2202 L 60.2572 41.2202 L 60.2572 43.6944 L 60.5842 43.6944 L 60.5842 44.6164 L 60.2942 44.6164 L 60.2942 43.9556 L 58.4559 43.9556 L 58.4559 44.6164 L 58.166 44.6164 L 58.166 43.6944 L 58.1691 43.6944 Z M 58.7397 43.6944 L 59.9673 43.6944 L 59.9673 41.4815 L 59.0389 41.4815 L 59.0389 42.3236 C 59.0389 42.8891 58.9371 43.3471 58.7397 43.6944 Z" stroke-linecap="round" />
</g>
		<g transform="matrix(1 0 0 1 6.3602 5.92965)" id="zczplaz_ibb8kJTYfKeKa"  >
<path style="stroke: none; stroke-width: 1; stroke-dasharray: none; stroke-linecap: butt; stroke-dashoffset: 0; stroke-linejoin: miter; stroke-miterlimit: 4; fill: rgb(0,94,162); fill-rule: nonzero; opacity: 1;" vector-effect="non-scaling-stroke"  transform=" translate(-61.97525, -42.5879)" d="M 62.8882 41.8657 C 62.9191 42.0101 62.9345 42.2498 62.9345 42.5879 C 62.9345 42.926 62.9191 43.1657 62.8882 43.3102 C 62.8574 43.4546 62.7803 43.5868 62.6569 43.7097 C 62.478 43.888 62.2497 43.9802 61.9752 43.9802 C 61.6976 43.9802 61.4694 43.8911 61.2905 43.7097 C 61.1702 43.5899 61.0931 43.4577 61.0623 43.3133 C 61.0314 43.1688 61.016 42.9291 61.016 42.5879 C 61.016 42.2468 61.0314 42.004 61.0623 41.8626 C 61.0931 41.7181 61.1702 41.586 61.2905 41.4661 C 61.4694 41.2879 61.6976 41.1956 61.9752 41.1956 C 62.2497 41.1956 62.478 41.2848 62.6569 41.4661 C 62.7803 41.5891 62.8574 41.7212 62.8882 41.8657 Z M 62.6075 43.2149 C 62.6322 43.092 62.6415 42.883 62.6415 42.5879 C 62.6415 42.2898 62.6291 42.0808 62.6075 41.9609 C 62.5859 41.8411 62.5304 41.7366 62.4502 41.6505 C 62.3207 41.5214 62.1634 41.46 61.9752 41.46 C 61.7871 41.46 61.6298 41.5245 61.5002 41.6505 C 61.417 41.7335 61.3645 41.838 61.3429 41.9609 C 61.3214 42.0839 61.309 42.2929 61.309 42.5879 C 61.309 42.8861 61.3214 43.0951 61.3429 43.2149 C 61.3676 43.3379 61.42 43.4393 61.5002 43.5253 C 61.6298 43.6544 61.7871 43.7159 61.9752 43.7159 C 62.1634 43.7159 62.3207 43.6513 62.4502 43.5253 C 62.5304 43.4393 62.5859 43.3379 62.6075 43.2149 Z" stroke-linecap="round" />
</g>
		<g transform="matrix(1 0 0 1 8.96805 5.92965)" id="sN2KWVE9j4b6ZUGOF2GYR"  >
<path style="stroke: none; stroke-width: 1; stroke-dasharray: none; stroke-linecap: butt; stroke-dashoffset: 0; stroke-linejoin: miter; stroke-miterlimit: 4; fill: rgb(0,94,162); fill-rule: nonzero; opacity: 1;" vector-effect="non-scaling-stroke"  transform=" translate(-64.5831, -42.5879)" d="M 65.5254 43.2057 C 65.5254 43.4393 65.4513 43.6206 65.3064 43.7558 C 65.1614 43.8911 64.9609 43.9556 64.708 43.9556 L 63.6408 43.9556 L 63.6408 41.2202 L 64.6741 41.2202 C 64.9147 41.2202 65.1121 41.2848 65.2601 41.4169 C 65.4082 41.5491 65.4853 41.7212 65.4853 41.9363 C 65.4853 42.1331 65.4174 42.2959 65.2848 42.422 C 65.2416 42.465 65.1737 42.508 65.0812 42.548 C 65.1892 42.5941 65.2694 42.6432 65.3249 42.6986 C 65.4575 42.8277 65.5254 42.9967 65.5254 43.2057 Z M 65.0473 42.3021 C 65.1429 42.2191 65.1892 42.1023 65.1892 41.9517 C 65.1892 41.8042 65.1429 41.6874 65.0473 41.6044 C 64.9517 41.5214 64.819 41.4784 64.6494 41.4784 L 63.9307 41.4784 L 63.9307 42.4281 L 64.6494 42.4281 C 64.8221 42.4281 64.9517 42.3881 65.0473 42.3021 Z M 65.0843 43.5561 C 65.183 43.4639 65.2323 43.344 65.2323 43.1903 C 65.2323 43.0367 65.183 42.9137 65.0843 42.8246 C 64.9856 42.7355 64.8499 42.6893 64.6802 42.6893 L 63.9338 42.6893 L 63.9338 43.6913 L 64.6802 43.6913 C 64.853 43.6944 64.9856 43.6483 65.0843 43.5561 Z" stroke-linecap="round" />
</g>
		<g transform="matrix(1 0 0 1 11.38 5.92965)" id="4d2tuRfHYGjrzl5vpEeXs"  >
<path style="stroke: none; stroke-width: 1; stroke-dasharray: none; stroke-linecap: butt; stroke-dashoffset: 0; stroke-linejoin: miter; stroke-miterlimit: 4; fill: rgb(0,94,162); fill-rule: nonzero; opacity: 1;" vector-effect="non-scaling-stroke"  transform=" translate(-66.99505, -42.5879)" d="M 68.1255 43.9556 L 67.814 43.9556 L 67.595 43.3378 L 66.3951 43.3378 L 66.1761 43.9556 L 65.8646 43.9556 L 66.8732 41.2202 L 67.12 41.2202 L 68.1255 43.9556 Z M 67.5086 43.0828 L 66.9997 41.6382 L 66.4815 43.0828 L 67.5086 43.0828 Z" stroke-linecap="round" />
</g>
		<g transform="matrix(1 0 0 1 13.39565 5.92965)" id="Xm0EI5bvu748bv2bMiecF"  >
<path style="stroke: none; stroke-width: 1; stroke-dasharray: none; stroke-linecap: butt; stroke-dashoffset: 0; stroke-linejoin: miter; stroke-miterlimit: 4; fill: rgb(0,94,162); fill-rule: nonzero; opacity: 1;" vector-effect="non-scaling-stroke"  transform=" translate(-69.0107, -42.5879)" d="M 69.9514 41.4815 L 69.1588 41.4815 L 69.1588 43.9556 L 68.8657 43.9556 L 68.8657 41.4815 L 68.07 41.4815 L 68.07 41.2202 L 69.9514 41.2202 L 69.9514 41.4815 Z" stroke-linecap="round" />
</g>
		<g transform="matrix(1 0 0 1 15.71665 5.92965)" id="9E9uy2_67hQUVzyCR4OTv"  >
<path style="stroke: none; stroke-width: 1; stroke-dasharray: none; stroke-linecap: butt; stroke-dashoffset: 0; stroke-linejoin: miter; stroke-miterlimit: 4; fill: rgb(0,94,162); fill-rule: nonzero; opacity: 1;" vector-effect="non-scaling-stroke"  transform=" translate(-71.3317, -42.5879)" d="M 72.1845 43.9556 L 70.4789 43.9556 L 70.4789 41.2202 L 72.1845 41.2202 L 72.1845 41.4815 L 70.7719 41.4815 L 70.7719 42.4465 L 71.9748 42.4465 L 71.9748 42.7078 L 70.7719 42.7078 L 70.7719 43.6944 L 72.1845 43.6944 L 72.1845 43.9556 Z" stroke-linecap="round" />
</g>
		<g transform="matrix(1 0 0 1 17.92815 5.9312)" id="w0Ypt4BRZUznrYPWXoD_F"  >
<path style="stroke: none; stroke-width: 1; stroke-dasharray: none; stroke-linecap: butt; stroke-dashoffset: 0; stroke-linejoin: miter; stroke-miterlimit: 4; fill: rgb(0,94,162); fill-rule: nonzero; opacity: 1;" vector-effect="non-scaling-stroke"  transform=" translate(-73.5432, -42.58945)" d="M 74.6243 43.9556 L 74.3313 43.9556 L 74.3313 41.4815 L 73.3998 41.4815 L 73.3998 42.4189 C 73.3998 42.9783 73.335 43.3717 73.2024 43.6053 C 73.0728 43.8388 72.8693 43.9556 72.5978 43.9556 L 72.459 43.9556 L 72.459 43.6944 L 72.5331 43.6944 C 72.6256 43.6944 72.7058 43.6759 72.7706 43.6391 C 72.8353 43.6022 72.897 43.5346 72.9495 43.4424 C 73.0019 43.3471 73.0451 43.2088 73.0728 43.0244 C 73.1006 42.84 73.116 42.6094 73.116 42.3328 L 73.116 41.2233 L 74.6274 41.2233 L 74.6274 43.9556 L 74.6243 43.9556 Z" stroke-linecap="round" />
</g>
		<g transform="matrix(1 0 0 1 20.75655 5.9266)" id="jica7jBlexHk1xDMN1Beo"  >
<path style="stroke: none; stroke-width: 1; stroke-dasharray: none; stroke-linecap: butt; stroke-dashoffset: 0; stroke-linejoin: miter; stroke-miterlimit: 4; fill: rgb(0,94,162); fill-rule: nonzero; opacity: 1;" vector-effect="non-scaling-stroke"  transform=" translate(-76.3716, -42.58485)" d="M 77.3108 43.1504 C 77.3108 43.3901 77.2336 43.5837 77.0763 43.7313 C 76.9221 43.8788 76.7155 43.9525 76.4626 43.9525 L 75.4324 43.9525 L 75.4324 41.2172 L 75.7254 41.2172 L 75.7254 42.3421 L 76.4626 42.3421 C 76.7186 42.3421 76.9252 42.4158 77.0794 42.5633 C 77.2336 42.7139 77.3108 42.9076 77.3108 43.1504 Z M 76.8635 43.5499 C 76.9653 43.4546 77.0147 43.3225 77.0147 43.1504 C 77.0147 42.9783 76.9653 42.8461 76.8635 42.7477 C 76.7617 42.6494 76.6199 42.6033 76.4379 42.6033 L 75.7285 42.6033 L 75.7285 43.6913 L 76.4379 43.6913 C 76.6199 43.6944 76.7617 43.6452 76.8635 43.5499 Z" stroke-linecap="round" />
</g>
		<g transform="matrix(1 0 0 1 23.1176 5.9266)" id="3_t_eR2TkTCxDk5y2WU8A"  >
<path style="stroke: none; stroke-width: 1; stroke-dasharray: none; stroke-linecap: butt; stroke-dashoffset: 0; stroke-linejoin: miter; stroke-miterlimit: 4; fill: rgb(0,94,162); fill-rule: nonzero; opacity: 1;" vector-effect="non-scaling-stroke"  transform=" translate(-78.73265, -42.58485)" d="M 79.6888 43.1627 C 79.6395 43.4178 79.5315 43.6145 79.3619 43.7589 C 79.1922 43.9034 78.9825 43.9771 78.7358 43.9771 C 78.4582 43.9771 78.2299 43.888 78.051 43.7067 C 77.9307 43.5868 77.8536 43.4547 77.8228 43.3102 C 77.7919 43.1657 77.7765 42.926 77.7765 42.5849 C 77.7765 42.2437 77.7919 42.0009 77.8228 41.8595 C 77.8536 41.7151 77.9307 41.5829 78.051 41.463 C 78.2299 41.2848 78.4582 41.1926 78.7358 41.1926 C 78.9856 41.1926 79.1953 41.2633 79.3619 41.4077 C 79.5284 41.5522 79.6395 41.752 79.6888 42.0071 L 79.3866 42.0071 C 79.3496 41.8349 79.2755 41.6997 79.1614 41.6014 C 79.0473 41.503 78.9054 41.4538 78.7358 41.4538 C 78.5476 41.4538 78.3903 41.5184 78.2608 41.6444 C 78.1775 41.7274 78.1251 41.8319 78.1035 41.9548 C 78.0819 42.0777 78.0695 42.2867 78.0695 42.5818 C 78.0695 42.8799 78.0819 43.0889 78.1035 43.2088 C 78.1281 43.3317 78.1806 43.4331 78.2608 43.5192 C 78.3903 43.6483 78.5476 43.7098 78.7358 43.7098 C 78.9054 43.7098 79.0473 43.6606 79.1645 43.5622 C 79.2817 43.4639 79.3588 43.3286 79.3927 43.1565 L 79.6888 43.1565 L 79.6888 43.1627 Z" stroke-linecap="round" />
</g>
		<g transform="matrix(1 0 0 1 25.7239 5.92965)" id="m9xY9v3rjc_8_VG1Gg7fC"  >
<path style="stroke: none; stroke-width: 1; stroke-dasharray: none; stroke-linecap: butt; stroke-dashoffset: 0; stroke-linejoin: miter; stroke-miterlimit: 4; fill: rgb(0,94,162); fill-rule: nonzero; opacity: 1;" vector-effect="non-scaling-stroke"  transform=" translate(-81.33895, -42.5879)" d="M 80.6573 43.9556 L 80.3643 43.9556 L 80.3643 41.2202 L 80.6573 41.2202 L 80.6573 43.9556 Z M 82.3136 43.9556 L 81.925 43.9556 L 80.6635 42.5265 L 81.8387 41.2202 L 82.2088 41.2202 L 81.0059 42.5203 L 82.3136 43.9556 Z" stroke-linecap="round" />
</g>
		<g transform="matrix(1 0 0 1 28.08965 5.92965)" id="KxBItt6LXaDDDJPbcEoFu"  >
<path style="stroke: none; stroke-width: 1; stroke-dasharray: none; stroke-linecap: butt; stroke-dashoffset: 0; stroke-linejoin: miter; stroke-miterlimit: 4; fill: rgb(0,94,162); fill-rule: nonzero; opacity: 1;" vector-effect="non-scaling-stroke"  transform=" translate(-83.7047, -42.5879)" d="M 84.6886 43.9556 L 84.3956 43.9556 L 84.3956 41.7243 L 82.9984 43.9556 L 82.7208 43.9556 L 82.7208 41.2202 L 83.0138 41.2202 L 83.0138 43.4485 L 84.411 41.2202 L 84.6886 41.2202 L 84.6886 43.9556 Z" stroke-linecap="round" />
</g>
		<g transform="matrix(1 0 0 1 30.86555 5.6008)" id="5aDzkrUrSPpRO2_v6V4sa"  >
<path style="stroke: none; stroke-width: 1; stroke-dasharray: none; stroke-linecap: butt; stroke-dashoffset: 0; stroke-linejoin: miter; stroke-miterlimit: 4; fill: rgb(0,94,162); fill-rule: nonzero; opacity: 1;" vector-effect="non-scaling-stroke"  transform=" translate(-86.4806, -42.25905)" d="M 87.4645 43.9556 L 87.1715 43.9556 L 87.1715 41.7243 L 85.7743 43.9556 L 85.4967 43.9556 L 85.4967 41.2202 L 85.7897 41.2202 L 85.7897 43.4485 L 87.1869 41.2202 L 87.4645 41.2202 L 87.4645 43.9556 Z M 87.042 40.5625 C 87.0204 40.8852 86.8353 41.0481 86.4775 41.0481 C 86.1228 41.0481 85.9347 40.8883 85.9162 40.5625 L 86.1629 40.5625 C 86.1784 40.7531 86.2832 40.8483 86.4775 40.8483 C 86.6719 40.8483 86.7798 40.7531 86.7952 40.5625 L 87.042 40.5625 Z" stroke-linecap="round" />
</g>
		<g transform="matrix(1 0 0 1 -25.14675 10.3862)" id="Lv0H6V8gIZZdJ531NG7g5"  >
<path style="stroke: none; stroke-width: 1; stroke-dasharray: none; stroke-linecap: butt; stroke-dashoffset: 0; stroke-linejoin: miter; stroke-miterlimit: 4; fill: rgb(0,94,162); fill-rule: nonzero; opacity: 1;" vector-effect="non-scaling-stroke"  transform=" translate(-30.4683, -47.04445)" d="M 31.4522 48.4121 L 31.1592 48.4121 L 31.1592 46.1808 L 29.762 48.4121 L 29.4844 48.4121 L 29.4844 45.6768 L 29.7774 45.6768 L 29.7774 47.905 L 31.1746 45.6768 L 31.4522 45.6768 L 31.4522 48.4121 Z" stroke-linecap="round" />
</g>
		<g transform="matrix(1 0 0 1 -22.4248 10.3862)" id="rHSa2vIweJWPn-IW3WUmQ"  >
<path style="stroke: none; stroke-width: 1; stroke-dasharray: none; stroke-linecap: butt; stroke-dashoffset: 0; stroke-linejoin: miter; stroke-miterlimit: 4; fill: rgb(0,94,162); fill-rule: nonzero; opacity: 1;" vector-effect="non-scaling-stroke"  transform=" translate(-33.19025, -47.04445)" d="M 34.1356 48.4121 L 33.8426 48.4121 L 33.8426 47.1643 L 32.5379 47.1643 L 32.5379 48.4121 L 32.2449 48.4121 L 32.2449 45.6768 L 32.5379 45.6768 L 32.5379 46.9031 L 33.8426 46.9031 L 33.8426 45.6768 L 34.1356 45.6768 L 34.1356 48.4121 Z" stroke-linecap="round" />
</g>
		<g transform="matrix(1 0 0 1 -19.8324 10.38315)" id="eWvCLriT2xlVhGrXL7GtY"  >
<path style="stroke: none; stroke-width: 1; stroke-dasharray: none; stroke-linecap: butt; stroke-dashoffset: 0; stroke-linejoin: miter; stroke-miterlimit: 4; fill: rgb(0,94,162); fill-rule: nonzero; opacity: 1;" vector-effect="non-scaling-stroke"  transform=" translate(-35.78265, -47.0414)" d="M 36.7388 47.6192 C 36.6895 47.8743 36.5815 48.071 36.4119 48.2155 C 36.2423 48.3599 36.0325 48.4337 35.7858 48.4337 C 35.5082 48.4337 35.2799 48.3445 35.101 48.1632 C 34.9808 48.0433 34.9036 47.9112 34.8728 47.7667 C 34.842 47.6223 34.8265 47.3825 34.8265 47.0414 C 34.8265 46.7002 34.842 46.4574 34.8728 46.3161 C 34.9036 46.1716 34.9808 46.0394 35.101 45.9196 C 35.2799 45.7413 35.5082 45.6491 35.7858 45.6491 C 36.0356 45.6491 36.2453 45.7198 36.4119 45.8643 C 36.5785 46.0087 36.6895 46.2085 36.7388 46.4636 L 36.4366 46.4636 C 36.3996 46.2915 36.3255 46.1562 36.2114 46.0579 C 36.0973 45.9595 35.9554 45.9104 35.7858 45.9104 C 35.5976 45.9104 35.4403 45.9749 35.3108 46.1009 C 35.2275 46.1839 35.1751 46.2884 35.1535 46.4113 C 35.1319 46.5343 35.1195 46.7433 35.1195 47.0383 C 35.1195 47.3364 35.1319 47.5454 35.1535 47.6653 C 35.1782 47.7882 35.2306 47.8897 35.3108 47.9757 C 35.4403 48.1048 35.5976 48.1663 35.7858 48.1663 C 35.9554 48.1663 36.0973 48.1171 36.2145 48.0188 C 36.3317 47.9204 36.4088 47.7852 36.4428 47.6131 L 36.7388 47.6131 L 36.7388 47.6192 Z" stroke-linecap="round" />
</g>
		<g transform="matrix(1 0 0 1 -17.64865 10.3862)" id="5GxMA64wVP_EbFhjcHVdI"  >
<path style="stroke: none; stroke-width: 1; stroke-dasharray: none; stroke-linecap: butt; stroke-dashoffset: 0; stroke-linejoin: miter; stroke-miterlimit: 4; fill: rgb(0,94,162); fill-rule: nonzero; opacity: 1;" vector-effect="non-scaling-stroke"  transform=" translate(-37.9664, -47.04445)" d="M 38.9071 45.938 L 38.1145 45.938 L 38.1145 48.4121 L 37.8214 48.4121 L 37.8214 45.938 L 37.0257 45.938 L 37.0257 45.6768 L 38.9071 45.6768 L 38.9071 45.938 Z" stroke-linecap="round" />
</g>
		<g transform="matrix(1 0 0 1 -15.21195 10.3862)" id="f911wlHDYoY-4v1B1uL7w"  >
<path style="stroke: none; stroke-width: 1; stroke-dasharray: none; stroke-linecap: butt; stroke-dashoffset: 0; stroke-linejoin: miter; stroke-miterlimit: 4; fill: rgb(0,94,162); fill-rule: nonzero; opacity: 1;" vector-effect="non-scaling-stroke"  transform=" translate(-40.4031, -47.04445)" d="M 41.387 48.4121 L 41.094 48.4121 L 41.094 46.1808 L 39.6968 48.4121 L 39.4192 48.4121 L 39.4192 45.6768 L 39.7122 45.6768 L 39.7122 47.905 L 41.1094 45.6768 L 41.387 45.6768 L 41.387 48.4121 Z" stroke-linecap="round" />
</g>
		<g transform="matrix(1 0 0 1 -12.7753 10.3862)" id="p21ERZ01p12RlxeNDm0PW"  >
<path style="stroke: none; stroke-width: 1; stroke-dasharray: none; stroke-linecap: butt; stroke-dashoffset: 0; stroke-linejoin: miter; stroke-miterlimit: 4; fill: rgb(0,94,162); fill-rule: nonzero; opacity: 1;" vector-effect="non-scaling-stroke"  transform=" translate(-42.83975, -47.04445)" d="M 43.7805 45.938 L 42.9878 45.938 L 42.9878 48.4121 L 42.6948 48.4121 L 42.6948 45.938 L 41.899 45.938 L 41.899 45.6768 L 43.7805 45.6768 L 43.7805 45.938 Z" stroke-linecap="round" />
</g>
		<g transform="matrix(1 0 0 1 -10.6255 10.3862)" id="NN-mCS7uIL4l65o5jlybC"  >
<path style="stroke: none; stroke-width: 1; stroke-dasharray: none; stroke-linecap: butt; stroke-dashoffset: 0; stroke-linejoin: miter; stroke-miterlimit: 4; fill: rgb(0,94,162); fill-rule: nonzero; opacity: 1;" vector-effect="non-scaling-stroke"  transform=" translate(-44.98955, -47.04445)" d="M 46.0074 45.6768 L 45.0111 47.9849 C 44.8878 48.2708 44.7089 48.4121 44.4714 48.4121 L 44.2339 48.4121 L 44.2339 48.1509 L 44.4066 48.1509 C 44.4991 48.1509 44.5732 48.1294 44.6256 48.0864 C 44.678 48.0433 44.7274 47.9757 44.7675 47.8774 L 44.8785 47.6192 L 43.9717 45.6768 L 44.2832 45.6768 L 45.0235 47.2934 L 45.6897 45.6768 L 46.0074 45.6768 Z" stroke-linecap="round" />
</g>
		<g transform="matrix(1 0 0 1 -8.51885 10.3862)" id="nVy048zCP44KCscMwlZJt"  >
<path style="stroke: none; stroke-width: 1; stroke-dasharray: none; stroke-linecap: butt; stroke-dashoffset: 0; stroke-linejoin: miter; stroke-miterlimit: 4; fill: rgb(0,94,162); fill-rule: nonzero; opacity: 1;" vector-effect="non-scaling-stroke"  transform=" translate(-47.0962, -47.04445)" d="M 48.0369 45.938 L 47.2442 45.938 L 47.2442 48.4121 L 46.9512 48.4121 L 46.9512 45.938 L 46.1555 45.938 L 46.1555 45.6768 L 48.0369 45.6768 L 48.0369 45.938 Z" stroke-linecap="round" />
</g>
		<g transform="matrix(1 0 0 1 -5.1615 10.3862)" id="PkafEi3s3J-G53_DPsTUb"  >
<path style="stroke: none; stroke-width: 1; stroke-dasharray: none; stroke-linecap: butt; stroke-dashoffset: 0; stroke-linejoin: miter; stroke-miterlimit: 4; fill: rgb(0,94,162); fill-rule: nonzero; opacity: 1;" vector-effect="non-scaling-stroke"  transform=" translate(-50.45355, -47.04445)" d="M 51.3958 48.4121 L 51.1028 48.4121 L 51.1028 45.938 L 49.8043 45.938 L 49.8043 48.4121 L 49.5113 48.4121 L 49.5113 45.6768 L 51.3958 45.6768 L 51.3958 48.4121 Z" stroke-linecap="round" />
</g>
		<g transform="matrix(1 0 0 1 -2.5706 10.3862)" id="qC-DT-XAKu54IU-e7yoH1"  >
<path style="stroke: none; stroke-width: 1; stroke-dasharray: none; stroke-linecap: butt; stroke-dashoffset: 0; stroke-linejoin: miter; stroke-miterlimit: 4; fill: rgb(0,94,162); fill-rule: nonzero; opacity: 1;" vector-effect="non-scaling-stroke"  transform=" translate(-53.04445, -47.04445)" d="M 53.8973 48.4121 L 52.1916 48.4121 L 52.1916 45.6768 L 53.8973 45.6768 L 53.8973 45.938 L 52.4846 45.938 L 52.4846 46.9031 L 53.6875 46.9031 L 53.6875 47.1643 L 52.4846 47.1643 L 52.4846 48.1509 L 53.8973 48.1509 L 53.8973 48.4121 Z" stroke-linecap="round" />
</g>
		<g transform="matrix(1 0 0 1 -0.17255 10.3862)" id="viv24WEuqsTLnUMfdcOJT"  >
<path style="stroke: none; stroke-width: 1; stroke-dasharray: none; stroke-linecap: butt; stroke-dashoffset: 0; stroke-linejoin: miter; stroke-miterlimit: 4; fill: rgb(0,94,162); fill-rule: nonzero; opacity: 1;" vector-effect="non-scaling-stroke"  transform=" translate(-55.4425, -47.04445)" d="M 56.3771 46.4789 C 56.3771 46.7217 56.2969 46.9184 56.1396 47.066 C 55.9823 47.2135 55.7787 47.2873 55.5289 47.2873 L 54.8009 47.2873 L 54.8009 48.4121 L 54.5079 48.4121 L 54.5079 45.6768 L 55.5289 45.6768 C 55.7818 45.6768 55.9853 45.7505 56.1427 45.898 C 56.3 46.0425 56.3771 46.2361 56.3771 46.4789 Z M 55.9267 46.8846 C 56.0316 46.7924 56.084 46.6572 56.084 46.4789 C 56.084 46.3037 56.0316 46.1685 55.9267 46.0763 C 55.8219 45.9841 55.6831 45.938 55.5042 45.938 L 54.7979 45.938 L 54.7979 47.026 L 55.5042 47.026 C 55.6831 47.0229 55.825 46.9768 55.9267 46.8846 Z" stroke-linecap="round" />
</g>
		<g transform="matrix(1 0 0 1 2.1716 10.38315)" id="aXGNdAu4WpY6ofLz9xofv"  >
<path style="stroke: none; stroke-width: 1; stroke-dasharray: none; stroke-linecap: butt; stroke-dashoffset: 0; stroke-linejoin: miter; stroke-miterlimit: 4; fill: rgb(0,94,162); fill-rule: nonzero; opacity: 1;" vector-effect="non-scaling-stroke"  transform=" translate(-57.78665, -47.0414)" d="M 58.7428 47.6192 C 58.6934 47.8743 58.5855 48.071 58.4158 48.2155 C 58.2462 48.3599 58.0365 48.4337 57.7897 48.4337 C 57.5121 48.4337 57.2839 48.3445 57.105 48.1632 C 56.9847 48.0433 56.9076 47.9112 56.8767 47.7667 C 56.8459 47.6223 56.8305 47.3825 56.8305 47.0414 C 56.8305 46.7002 56.8459 46.4574 56.8767 46.3161 C 56.9076 46.1716 56.9847 46.0394 57.105 45.9196 C 57.2839 45.7413 57.5121 45.6491 57.7897 45.6491 C 58.0395 45.6491 58.2493 45.7198 58.4158 45.8643 C 58.5824 46.0087 58.6934 46.2085 58.7428 46.4636 L 58.4405 46.4636 C 58.4035 46.2915 58.3295 46.1562 58.2154 46.0579 C 58.1012 45.9595 57.9594 45.9104 57.7897 45.9104 C 57.6016 45.9104 57.4443 45.9749 57.3147 46.1009 C 57.2314 46.1839 57.179 46.2884 57.1574 46.4113 C 57.1358 46.5343 57.1235 46.7433 57.1235 47.0383 C 57.1235 47.3364 57.1358 47.5454 57.1574 47.6653 C 57.1821 47.7882 57.2345 47.8897 57.3147 47.9757 C 57.4443 48.1048 57.6016 48.1663 57.7897 48.1663 C 57.9594 48.1663 58.1012 48.1171 58.2184 48.0188 C 58.3357 47.9204 58.4128 47.7852 58.4467 47.6131 L 58.7428 47.6131 L 58.7428 47.6192 Z" stroke-linecap="round" />
</g>
		<g transform="matrix(1 0 0 1 4.72085 10.3862)" id="qO7EaMFMEgTVi8fOTw5Xa"  >
<path style="stroke: none; stroke-width: 1; stroke-dasharray: none; stroke-linecap: butt; stroke-dashoffset: 0; stroke-linejoin: miter; stroke-miterlimit: 4; fill: rgb(0,94,162); fill-rule: nonzero; opacity: 1;" vector-effect="non-scaling-stroke"  transform=" translate(-60.3359, -47.04445)" d="M 61.2782 48.4121 L 60.9852 48.4121 L 60.9852 45.938 L 59.6866 45.938 L 59.6866 48.4121 L 59.3936 48.4121 L 59.3936 45.6768 L 61.2782 45.6768 L 61.2782 48.4121 Z" stroke-linecap="round" />
</g>
		<g transform="matrix(1 0 0 1 7.3117 10.3862)" id="0dRBgx1w2T844nglDD29k"  >
<path style="stroke: none; stroke-width: 1; stroke-dasharray: none; stroke-linecap: butt; stroke-dashoffset: 0; stroke-linejoin: miter; stroke-miterlimit: 4; fill: rgb(0,94,162); fill-rule: nonzero; opacity: 1;" vector-effect="non-scaling-stroke"  transform=" translate(-62.92675, -47.04445)" d="M 63.7796 48.4121 L 62.0739 48.4121 L 62.0739 45.6768 L 63.7796 45.6768 L 63.7796 45.938 L 62.367 45.938 L 62.367 46.9031 L 63.5699 46.9031 L 63.5699 47.1643 L 62.367 47.1643 L 62.367 48.1509 L 63.7796 48.1509 L 63.7796 48.4121 Z" stroke-linecap="round" />
</g>
		<g transform="matrix(1 0 0 1 9.76225 10.3862)" id="IoMK_ymOaMH5tTFNarPlw"  >
<path style="stroke: none; stroke-width: 1; stroke-dasharray: none; stroke-linecap: butt; stroke-dashoffset: 0; stroke-linejoin: miter; stroke-miterlimit: 4; fill: rgb(0,94,162); fill-rule: nonzero; opacity: 1;" vector-effect="non-scaling-stroke"  transform=" translate(-65.3773, -47.04445)" d="M 64.6957 48.4121 L 64.4026 48.4121 L 64.4026 45.6768 L 64.6957 45.6768 L 64.6957 48.4121 Z M 66.352 48.4121 L 65.9633 48.4121 L 64.7018 46.983 L 65.877 45.6768 L 66.2471 45.6768 L 65.0442 46.9768 L 66.352 48.4121 Z" stroke-linecap="round" />
</g>
		<g transform="matrix(1 0 0 1 11.7887 10.3862)" id="snCkrbEzS9jioIP-_8EH2"  >
<path style="stroke: none; stroke-width: 1; stroke-dasharray: none; stroke-linecap: butt; stroke-dashoffset: 0; stroke-linejoin: miter; stroke-miterlimit: 4; fill: rgb(0,94,162); fill-rule: nonzero; opacity: 1;" vector-effect="non-scaling-stroke"  transform=" translate(-67.40375, -47.04445)" d="M 68.3445 45.938 L 67.5518 45.938 L 67.5518 48.4121 L 67.2588 48.4121 L 67.2588 45.938 L 66.463 45.938 L 66.463 45.6768 L 68.3445 45.6768 L 68.3445 45.938 Z" stroke-linecap="round" />
</g>
		<g transform="matrix(1 0 0 1 14.22535 10.3862)" id="9E_tJq4tbRzk3sUbSAzzS"  >
<path style="stroke: none; stroke-width: 1; stroke-dasharray: none; stroke-linecap: butt; stroke-dashoffset: 0; stroke-linejoin: miter; stroke-miterlimit: 4; fill: rgb(0,94,162); fill-rule: nonzero; opacity: 1;" vector-effect="non-scaling-stroke"  transform=" translate(-69.8404, -47.04445)" d="M 70.8243 48.4121 L 70.5313 48.4121 L 70.5313 46.1808 L 69.1341 48.4121 L 68.8565 48.4121 L 68.8565 45.6768 L 69.1495 45.6768 L 69.1495 47.905 L 70.5467 45.6768 L 70.8243 45.6768 L 70.8243 48.4121 Z" stroke-linecap="round" />
</g>
		<g transform="matrix(1 0 0 1 16.9473 10.3862)" id="kcRTeEfab7GJRUomxGYf7"  >
<path style="stroke: none; stroke-width: 1; stroke-dasharray: none; stroke-linecap: butt; stroke-dashoffset: 0; stroke-linejoin: miter; stroke-miterlimit: 4; fill: rgb(0,94,162); fill-rule: nonzero; opacity: 1;" vector-effect="non-scaling-stroke"  transform=" translate(-72.56235, -47.04445)" d="M 73.5046 47.6622 C 73.5046 47.8958 73.4306 48.0771 73.2857 48.2124 C 73.1407 48.3476 72.9402 48.4121 72.6873 48.4121 L 71.6201 48.4121 L 71.6201 45.6768 L 72.6534 45.6768 C 72.8939 45.6768 73.0913 45.7413 73.2394 45.8735 C 73.3874 46.0056 73.4645 46.1777 73.4645 46.3929 C 73.4645 46.5896 73.3967 46.7525 73.2641 46.8785 C 73.2209 46.9215 73.153 46.9645 73.0605 47.0045 C 73.1684 47.0506 73.2486 47.0998 73.3042 47.1551 C 73.4337 47.2842 73.5046 47.4532 73.5046 47.6622 Z M 73.0235 46.7586 C 73.1191 46.6756 73.1654 46.5588 73.1654 46.4082 C 73.1654 46.2607 73.1191 46.1439 73.0235 46.0609 C 72.9279 45.978 72.7952 45.9349 72.6256 45.9349 L 71.9069 45.9349 L 71.9069 46.8846 L 72.6256 46.8846 C 72.7983 46.8846 72.931 46.8447 73.0235 46.7586 Z M 73.0605 48.0126 C 73.1592 47.9204 73.2085 47.8005 73.2085 47.6469 C 73.2085 47.4932 73.1592 47.3702 73.0605 47.2811 C 72.9618 47.192 72.8261 47.1459 72.6564 47.1459 L 71.91 47.1459 L 71.91 48.1478 L 72.6564 48.1478 C 72.8292 48.1509 72.9618 48.1048 73.0605 48.0126 Z" stroke-linecap="round" />
</g>
		<g transform="matrix(1 0 0 1 19.52275 10.3862)" id="k6QJ0XGJuxUIdrqRTcKy4"  >
<path style="stroke: none; stroke-width: 1; stroke-dasharray: none; stroke-linecap: butt; stroke-dashoffset: 0; stroke-linejoin: miter; stroke-miterlimit: 4; fill: rgb(0,94,162); fill-rule: nonzero; opacity: 1;" vector-effect="non-scaling-stroke"  transform=" translate(-75.1378, -47.04445)" d="M 76.0832 48.4121 L 75.7902 48.4121 L 75.7902 47.1643 L 74.4855 47.1643 L 74.4855 48.4121 L 74.1924 48.4121 L 74.1924 45.6768 L 74.4855 45.6768 L 74.4855 46.9031 L 75.7902 46.9031 L 75.7902 45.6768 L 76.0832 45.6768 L 76.0832 48.4121 Z" stroke-linecap="round" />
</g>
		<g transform="matrix(1 0 0 1 22.1183 10.3862)" id="8q3VFs9H-wqjKC487alll"  >
<path style="stroke: none; stroke-width: 1; stroke-dasharray: none; stroke-linecap: butt; stroke-dashoffset: 0; stroke-linejoin: miter; stroke-miterlimit: 4; fill: rgb(0,94,162); fill-rule: nonzero; opacity: 1;" vector-effect="non-scaling-stroke"  transform=" translate(-77.73335, -47.04445)" d="M 78.6463 46.3222 C 78.6772 46.4666 78.6926 46.7064 78.6926 47.0445 C 78.6926 47.3825 78.6772 47.6223 78.6463 47.7667 C 78.6155 47.9112 78.5384 48.0433 78.415 48.1663 C 78.2361 48.3445 78.0079 48.4367 77.7333 48.4367 C 77.4558 48.4367 77.2275 48.3476 77.0486 48.1663 C 76.9283 48.0464 76.8512 47.9142 76.8204 47.7698 C 76.7895 47.6253 76.7741 47.3856 76.7741 47.0445 C 76.7741 46.7033 76.7895 46.4605 76.8204 46.3191 C 76.8512 46.1747 76.9283 46.0425 77.0486 45.9226 C 77.2275 45.7444 77.4558 45.6522 77.7333 45.6522 C 78.0079 45.6522 78.2361 45.7413 78.415 45.9226 C 78.5384 46.0456 78.6155 46.1777 78.6463 46.3222 Z M 78.3656 47.6714 C 78.3903 47.5485 78.3996 47.3395 78.3996 47.0445 C 78.3996 46.7463 78.3872 46.5373 78.3656 46.4175 C 78.344 46.2976 78.2885 46.1931 78.2083 46.107 C 78.0788 45.978 77.9215 45.9165 77.7333 45.9165 C 77.5452 45.9165 77.3879 45.981 77.2583 46.107 C 77.1751 46.19 77.1226 46.2945 77.1011 46.4175 C 77.0795 46.5404 77.0671 46.7494 77.0671 47.0445 C 77.0671 47.3426 77.0795 47.5516 77.1011 47.6714 C 77.1257 47.7944 77.1782 47.8958 77.2583 47.9819 C 77.3879 48.1109 77.5452 48.1724 77.7333 48.1724 C 77.9215 48.1724 78.0788 48.1079 78.2083 47.9819 C 78.2885 47.8958 78.341 47.7944 78.3656 47.6714 Z" stroke-linecap="round" />
</g>
		<g transform="matrix(1 0 0 1 24.61815 10.3862)" id="qFtM2Lsvpu2BbngrJRbjH"  >
<path style="stroke: none; stroke-width: 1; stroke-dasharray: none; stroke-linecap: butt; stroke-dashoffset: 0; stroke-linejoin: miter; stroke-miterlimit: 4; fill: rgb(0,94,162); fill-rule: nonzero; opacity: 1;" vector-effect="non-scaling-stroke"  transform=" translate(-80.2332, -47.04445)" d="M 81.0583 45.938 L 79.7012 45.938 L 79.7012 48.4121 L 79.4081 48.4121 L 79.4081 45.6768 L 81.0583 45.6768 L 81.0583 45.938 Z" stroke-linecap="round" />
</g>
		<g transform="matrix(1 0 0 1 26.8189 10.3862)" id="rd_fr21XEOephYHbqFDhu"  >
<path style="stroke: none; stroke-width: 1; stroke-dasharray: none; stroke-linecap: butt; stroke-dashoffset: 0; stroke-linejoin: miter; stroke-miterlimit: 4; fill: rgb(0,94,162); fill-rule: nonzero; opacity: 1;" vector-effect="non-scaling-stroke"  transform=" translate(-82.43395, -47.04445)" d="M 83.3469 46.3222 C 83.3777 46.4666 83.3932 46.7064 83.3932 47.0445 C 83.3932 47.3825 83.3777 47.6223 83.3469 47.7667 C 83.316 47.9112 83.2389 48.0433 83.1156 48.1663 C 82.9367 48.3445 82.7084 48.4367 82.4339 48.4367 C 82.1563 48.4367 81.9281 48.3476 81.7492 48.1663 C 81.6289 48.0464 81.5518 47.9142 81.5209 47.7698 C 81.4901 47.6253 81.4747 47.3856 81.4747 47.0445 C 81.4747 46.7033 81.4901 46.4605 81.5209 46.3191 C 81.5518 46.1747 81.6289 46.0425 81.7492 45.9226 C 81.9281 45.7444 82.1563 45.6522 82.4339 45.6522 C 82.7084 45.6522 82.9367 45.7413 83.1156 45.9226 C 83.2389 46.0456 83.316 46.1777 83.3469 46.3222 Z M 83.0631 47.6714 C 83.0878 47.5485 83.0971 47.3395 83.0971 47.0445 C 83.0971 46.7463 83.0847 46.5373 83.0631 46.4175 C 83.0415 46.2976 82.986 46.1931 82.9058 46.107 C 82.7763 45.978 82.619 45.9165 82.4308 45.9165 C 82.2427 45.9165 82.0854 45.981 81.9558 46.107 C 81.8726 46.19 81.8201 46.2945 81.7985 46.4175 C 81.7769 46.5404 81.7646 46.7494 81.7646 47.0445 C 81.7646 47.3426 81.7769 47.5516 81.7985 47.6714 C 81.8232 47.7944 81.8756 47.8958 81.9558 47.9819 C 82.0854 48.1109 82.2427 48.1724 82.4308 48.1724 C 82.619 48.1724 82.7763 48.1079 82.9058 47.9819 C 82.9891 47.8958 83.0415 47.7944 83.0631 47.6714 Z" stroke-linecap="round" />
</g>
		<g transform="matrix(1 0 0 1 -25.27785 14.84275)" id="Oq5b6UiGUiE9Eb1rqNEWb"  >
<path style="stroke: none; stroke-width: 1; stroke-dasharray: none; stroke-linecap: butt; stroke-dashoffset: 0; stroke-linejoin: miter; stroke-miterlimit: 4; fill: rgb(0,94,162); fill-rule: nonzero; opacity: 1;" vector-effect="non-scaling-stroke"  transform=" translate(-30.3372, -51.501)" d="M 31.1623 50.3945 L 29.8052 50.3945 L 29.8052 52.8687 L 29.5121 52.8687 L 29.5121 50.1333 L 31.1623 50.1333 L 31.1623 50.3945 Z" stroke-linecap="round" />
</g>
		<g transform="matrix(1 0 0 1 -23 14.84275)" id="KifuKJ05BRyyLWWgRbOvo"  >
<path style="stroke: none; stroke-width: 1; stroke-dasharray: none; stroke-linecap: butt; stroke-dashoffset: 0; stroke-linejoin: miter; stroke-miterlimit: 4; fill: rgb(0,94,162); fill-rule: nonzero; opacity: 1;" vector-effect="non-scaling-stroke"  transform=" translate(-32.61505, -51.501)" d="M 33.5496 50.9355 C 33.5496 51.1783 33.4694 51.375 33.3121 51.5225 C 33.1548 51.67 32.9512 51.7438 32.7014 51.7438 L 31.9735 51.7438 L 31.9735 52.8687 L 31.6805 52.8687 L 31.6805 50.1333 L 32.7014 50.1333 C 32.9543 50.1333 33.1579 50.2071 33.3152 50.3546 C 33.4694 50.499 33.5496 50.6927 33.5496 50.9355 Z M 33.0993 51.3412 C 33.2041 51.249 33.2566 51.1137 33.2566 50.9355 C 33.2566 50.7603 33.2041 50.6251 33.0993 50.5329 C 32.9944 50.4406 32.8556 50.3945 32.6767 50.3945 L 31.9704 50.3945 L 31.9704 51.4826 L 32.6767 51.4826 C 32.8556 51.4795 32.9944 51.4334 33.0993 51.3412 Z" stroke-linecap="round" />
</g>
		<g transform="matrix(1 0 0 1 -20.9196 14.84275)" id="LHmerYE56Kz9zK52nKojh"  >
<path style="stroke: none; stroke-width: 1; stroke-dasharray: none; stroke-linecap: butt; stroke-dashoffset: 0; stroke-linejoin: miter; stroke-miterlimit: 4; fill: rgb(0,94,162); fill-rule: nonzero; opacity: 1;" vector-effect="non-scaling-stroke"  transform=" translate(-34.69545, -51.501)" d="M 35.8259 52.8687 L 35.5143 52.8687 L 35.2953 52.2509 L 34.0955 52.2509 L 33.8765 52.8687 L 33.565 52.8687 L 34.5736 50.1333 L 34.8203 50.1333 L 35.8259 52.8687 Z M 35.209 51.9958 L 34.7001 50.5513 L 34.1819 51.9958 L 35.209 51.9958 Z" stroke-linecap="round" />
</g>
		<g transform="matrix(1 0 0 1 -18.35805 15.17315)" id="W0XsCVz4r8s51xdYHf63j"  >
<path style="stroke: none; stroke-width: 1; stroke-dasharray: none; stroke-linecap: butt; stroke-dashoffset: 0; stroke-linejoin: miter; stroke-miterlimit: 4; fill: rgb(0,94,162); fill-rule: nonzero; opacity: 1;" vector-effect="non-scaling-stroke"  transform=" translate(-37.257, -51.8314)" d="M 36.051 52.6074 L 36.2947 52.6074 C 36.526 52.2478 36.6401 51.7284 36.6401 51.0553 L 36.6401 50.1333 L 38.1392 50.1333 L 38.1392 52.6074 L 38.4661 52.6074 L 38.4661 53.5295 L 38.1762 53.5295 L 38.1762 52.8687 L 36.3379 52.8687 L 36.3379 53.5295 L 36.0479 53.5295 L 36.0479 52.6074 L 36.051 52.6074 Z M 36.6216 52.6074 L 37.8492 52.6074 L 37.8492 50.3945 L 36.9208 50.3945 L 36.9208 51.2367 C 36.9177 51.8022 36.819 52.2601 36.6216 52.6074 Z" stroke-linecap="round" />
</g>
		<g transform="matrix(1 0 0 1 -15.7733 14.84275)" id="jquHT3rVWEAVlDjHMLAWP"  >
<path style="stroke: none; stroke-width: 1; stroke-dasharray: none; stroke-linecap: butt; stroke-dashoffset: 0; stroke-linejoin: miter; stroke-miterlimit: 4; fill: rgb(0,94,162); fill-rule: nonzero; opacity: 1;" vector-effect="non-scaling-stroke"  transform=" translate(-39.84175, -51.501)" d="M 40.7547 50.7787 C 40.7855 50.9232 40.801 51.1629 40.801 51.501 C 40.801 51.8391 40.7855 52.0788 40.7547 52.2232 C 40.7239 52.3677 40.6467 52.4999 40.5234 52.6228 C 40.3445 52.8011 40.1162 52.8933 39.8417 52.8933 C 39.5641 52.8933 39.3359 52.8041 39.157 52.6228 C 39.0367 52.5029 38.9596 52.3708 38.9287 52.2263 C 38.8979 52.0819 38.8825 51.8421 38.8825 51.501 C 38.8825 51.1598 38.8979 50.917 38.9287 50.7756 C 38.9596 50.6312 39.0367 50.499 39.157 50.3792 C 39.3359 50.2009 39.5641 50.1087 39.8417 50.1087 C 40.1162 50.1087 40.3445 50.1978 40.5234 50.3792 C 40.6467 50.5021 40.7239 50.6343 40.7547 50.7787 Z M 40.474 52.128 C 40.4987 52.005 40.5079 51.796 40.5079 51.501 C 40.5079 51.2029 40.4956 50.9939 40.474 50.874 C 40.4524 50.7541 40.3969 50.6496 40.3167 50.5636 C 40.1872 50.4345 40.0299 50.373 39.8417 50.373 C 39.6536 50.373 39.4963 50.4376 39.3667 50.5636 C 39.2834 50.6466 39.231 50.7511 39.2094 50.874 C 39.1878 50.9969 39.1755 51.2059 39.1755 51.501 C 39.1755 51.7991 39.1878 52.0081 39.2094 52.128 C 39.2341 52.2509 39.2865 52.3523 39.3667 52.4384 C 39.4963 52.5675 39.6536 52.6289 39.8417 52.6289 C 40.0299 52.6289 40.1872 52.5644 40.3167 52.4384 C 40.3969 52.3523 40.4493 52.2509 40.474 52.128 Z" stroke-linecap="round" />
</g>
		<g transform="matrix(1 0 0 1 -13.2719 14.83965)" id="GFZU59RYH5FB-MIGojmK5"  >
<path style="stroke: none; stroke-width: 1; stroke-dasharray: none; stroke-linecap: butt; stroke-dashoffset: 0; stroke-linejoin: miter; stroke-miterlimit: 4; fill: rgb(0,94,162); fill-rule: nonzero; opacity: 1;" vector-effect="non-scaling-stroke"  transform=" translate(-42.34315, -51.4979)" d="M 43.2993 52.0757 C 43.25 52.3308 43.142 52.5275 42.9724 52.672 C 42.8027 52.8164 42.593 52.8902 42.3462 52.8902 C 42.0686 52.8902 41.8404 52.8011 41.6615 52.6197 C 41.5412 52.4999 41.4641 52.3677 41.4333 52.2233 C 41.4024 52.0788 41.387 51.8391 41.387 51.4979 C 41.387 51.1568 41.4024 50.914 41.4333 50.7726 C 41.4641 50.6281 41.5412 50.496 41.6615 50.3761 C 41.8404 50.1978 42.0686 50.1056 42.3462 50.1056 C 42.5961 50.1056 42.8058 50.1763 42.9724 50.3208 C 43.1389 50.4652 43.25 50.665 43.2993 50.9201 L 42.997 50.9201 C 42.96 50.748 42.886 50.6128 42.7719 50.5144 C 42.6578 50.4161 42.5159 50.3669 42.3462 50.3669 C 42.1581 50.3669 42.0008 50.4314 41.8712 50.5574 C 41.788 50.6404 41.7355 50.7449 41.7139 50.8679 C 41.6923 50.9908 41.68 51.1998 41.68 51.4948 C 41.68 51.793 41.6923 52.002 41.7139 52.1218 C 41.7386 52.2448 41.791 52.3462 41.8712 52.4323 C 42.0008 52.5613 42.1581 52.6228 42.3462 52.6228 C 42.5159 52.6228 42.6578 52.5736 42.775 52.4753 C 42.8922 52.3769 42.9693 52.2417 43.0032 52.0696 L 43.2993 52.0696 L 43.2993 52.0757 Z" stroke-linecap="round" />
</g>
		<g transform="matrix(1 0 0 1 -11.0851 14.84275)" id="ByqKjSjsrIa1400WkXjE5"  >
<path style="stroke: none; stroke-width: 1; stroke-dasharray: none; stroke-linecap: butt; stroke-dashoffset: 0; stroke-linejoin: miter; stroke-miterlimit: 4; fill: rgb(0,94,162); fill-rule: nonzero; opacity: 1;" vector-effect="non-scaling-stroke"  transform=" translate(-44.52995, -51.501)" d="M 45.4707 50.3945 L 44.678 50.3945 L 44.678 52.8687 L 44.385 52.8687 L 44.385 50.3945 L 43.5892 50.3945 L 43.5892 50.1333 L 45.4707 50.1333 L 45.4707 50.3945 Z" stroke-linecap="round" />
</g>
		<g transform="matrix(1 0 0 1 -8.69775 14.84275)" id="XmBPKY3mHkxpTI6Y7d_81"  >
<path style="stroke: none; stroke-width: 1; stroke-dasharray: none; stroke-linecap: butt; stroke-dashoffset: 0; stroke-linejoin: miter; stroke-miterlimit: 4; fill: rgb(0,94,162); fill-rule: nonzero; opacity: 1;" vector-effect="non-scaling-stroke"  transform=" translate(-46.9173, -51.501)" d="M 47.8519 50.9355 C 47.8519 51.1783 47.7717 51.375 47.6144 51.5225 C 47.4571 51.67 47.2535 51.7438 47.0037 51.7438 L 46.2757 51.7438 L 46.2757 52.8687 L 45.9827 52.8687 L 45.9827 50.1333 L 47.0037 50.1333 C 47.2566 50.1333 47.4602 50.2071 47.6175 50.3546 C 47.7748 50.499 47.8519 50.6927 47.8519 50.9355 Z M 47.4046 51.3412 C 47.5095 51.249 47.5619 51.1137 47.5619 50.9355 C 47.5619 50.7603 47.5095 50.6251 47.4046 50.5329 C 47.2998 50.4406 47.161 50.3945 46.9821 50.3945 L 46.2757 50.3945 L 46.2757 51.4826 L 46.9821 51.4826 C 47.1579 51.4795 47.2998 51.4334 47.4046 51.3412 Z" stroke-linecap="round" />
</g>
		<g transform="matrix(1 0 0 1 -6.3475 14.84275)" id="dLxvYjIhRrRWiwhwwWdho"  >
<path style="stroke: none; stroke-width: 1; stroke-dasharray: none; stroke-linecap: butt; stroke-dashoffset: 0; stroke-linejoin: miter; stroke-miterlimit: 4; fill: rgb(0,94,162); fill-rule: nonzero; opacity: 1;" vector-effect="non-scaling-stroke"  transform=" translate(-49.26755, -51.501)" d="M 50.1806 50.7787 C 50.2114 50.9232 50.2268 51.1629 50.2268 51.501 C 50.2268 51.8391 50.2114 52.0788 50.1806 52.2232 C 50.1497 52.3677 50.0726 52.4999 49.9492 52.6228 C 49.7703 52.8011 49.5421 52.8933 49.2676 52.8933 C 48.99 52.8933 48.7617 52.8041 48.5829 52.6228 C 48.4626 52.5029 48.3855 52.3708 48.3546 52.2263 C 48.3238 52.0819 48.3083 51.8421 48.3083 51.501 C 48.3083 51.1598 48.3238 50.917 48.3546 50.7756 C 48.3855 50.6312 48.4626 50.499 48.5829 50.3792 C 48.7617 50.2009 48.99 50.1087 49.2676 50.1087 C 49.5421 50.1087 49.7703 50.1978 49.9492 50.3792 C 50.0726 50.5021 50.1497 50.6343 50.1806 50.7787 Z M 49.8999 52.128 C 49.9246 52.005 49.9338 51.796 49.9338 51.501 C 49.9338 51.2029 49.9215 50.9939 49.8999 50.874 C 49.8783 50.7541 49.8228 50.6496 49.7426 50.5636 C 49.613 50.4345 49.4557 50.373 49.2676 50.373 C 49.0794 50.373 48.9221 50.4376 48.7926 50.5636 C 48.7093 50.6466 48.6569 50.7511 48.6353 50.874 C 48.6137 50.9969 48.6014 51.2059 48.6014 51.501 C 48.6014 51.7991 48.6137 52.0081 48.6353 52.128 C 48.66 52.2509 48.7124 52.3523 48.7926 52.4384 C 48.9221 52.5675 49.0794 52.6289 49.2676 52.6289 C 49.4557 52.6289 49.613 52.5644 49.7426 52.4384 C 49.8228 52.3523 49.8752 52.2509 49.8999 52.128 Z" stroke-linecap="round" />
</g>
		<g transform="matrix(1 0 0 1 -3.7165 14.84275)" id="K7Q8FCOLpFaOloAyvjhqK"  >
<path style="stroke: none; stroke-width: 1; stroke-dasharray: none; stroke-linecap: butt; stroke-dashoffset: 0; stroke-linejoin: miter; stroke-miterlimit: 4; fill: rgb(0,94,162); fill-rule: nonzero; opacity: 1;" vector-effect="non-scaling-stroke"  transform=" translate(-51.89855, -51.501)" d="M 52.8825 52.8687 L 52.5895 52.8687 L 52.5895 50.6373 L 51.1922 52.8687 L 50.9146 52.8687 L 50.9146 50.1333 L 51.2077 50.1333 L 51.2077 52.3616 L 52.6049 50.1333 L 52.8825 50.1333 L 52.8825 52.8687 Z" stroke-linecap="round" />
</g>
		<g transform="matrix(1 0 0 1 -1.2767 14.84275)" id="yRLq5fddFL28pMHJkMXY3"  >
<path style="stroke: none; stroke-width: 1; stroke-dasharray: none; stroke-linecap: butt; stroke-dashoffset: 0; stroke-linejoin: miter; stroke-miterlimit: 4; fill: rgb(0,94,162); fill-rule: nonzero; opacity: 1;" vector-effect="non-scaling-stroke"  transform=" translate(-54.33835, -51.501)" d="M 55.2791 50.3945 L 54.4864 50.3945 L 54.4864 52.8687 L 54.1933 52.8687 L 54.1933 50.3945 L 53.3976 50.3945 L 53.3976 50.1333 L 55.2791 50.1333 L 55.2791 50.3945 Z" stroke-linecap="round" />
</g>
		<g transform="matrix(1 0 0 1 1.02575 14.84275)" id="yD1HSYFlUKNDaaQNqYb2s"  >
<path style="stroke: none; stroke-width: 1; stroke-dasharray: none; stroke-linecap: butt; stroke-dashoffset: 0; stroke-linejoin: miter; stroke-miterlimit: 4; fill: rgb(0,94,162); fill-rule: nonzero; opacity: 1;" vector-effect="non-scaling-stroke"  transform=" translate(-56.6408, -51.501)" d="M 57.4936 52.8687 L 55.788 52.8687 L 55.788 50.1333 L 57.4936 50.1333 L 57.4936 50.3945 L 56.081 50.3945 L 56.081 51.3596 L 57.2839 51.3596 L 57.2839 51.6209 L 56.081 51.6209 L 56.081 52.6074 L 57.4936 52.6074 L 57.4936 52.8687 Z" stroke-linecap="round" />
</g>
		<g transform="matrix(1 0 0 1 3.2249 14.8443)" id="jPDUsuEw8cCyJH7jGzcyP"  >
<path style="stroke: none; stroke-width: 1; stroke-dasharray: none; stroke-linecap: butt; stroke-dashoffset: 0; stroke-linejoin: miter; stroke-miterlimit: 4; fill: rgb(0,94,162); fill-rule: nonzero; opacity: 1;" vector-effect="non-scaling-stroke"  transform=" translate(-58.83995, -51.50255)" d="M 59.921 52.8687 L 59.628 52.8687 L 59.628 50.3945 L 58.6965 50.3945 L 58.6965 51.3319 C 58.6965 51.8913 58.6318 52.2847 58.4991 52.5183 C 58.3696 52.7519 58.166 52.8687 57.8946 52.8687 L 57.7558 52.8687 L 57.7558 52.6074 L 57.8298 52.6074 C 57.9224 52.6074 58.0025 52.589 58.0673 52.5521 C 58.1321 52.5152 58.1938 52.4476 58.2462 52.3554 C 58.2986 52.2601 58.3418 52.1218 58.3696 51.9374 C 58.3973 51.753 58.4128 51.5225 58.4128 51.2459 L 58.4128 50.1364 L 59.9241 50.1364 L 59.9241 52.8687 L 59.921 52.8687 Z" stroke-linecap="round" />
</g>
		<g transform="matrix(1 0 0 1 6.03785 14.83965)" id="sDj9kd26_fvI3Yeb4ormx"  >
<path style="stroke: none; stroke-width: 1; stroke-dasharray: none; stroke-linecap: butt; stroke-dashoffset: 0; stroke-linejoin: miter; stroke-miterlimit: 4; fill: rgb(0,94,162); fill-rule: nonzero; opacity: 1;" vector-effect="non-scaling-stroke"  transform=" translate(-61.6529, -51.4979)" d="M 62.5921 52.0634 C 62.5921 52.3032 62.515 52.4968 62.3577 52.6443 C 62.2035 52.7918 61.9968 52.8656 61.7439 52.8656 L 60.7137 52.8656 L 60.7137 50.1302 L 61.0067 50.1302 L 61.0067 51.2551 L 61.7439 51.2551 C 61.9999 51.2551 62.2066 51.3289 62.3608 51.4764 C 62.515 51.627 62.5921 51.8206 62.5921 52.0634 Z M 62.1418 52.463 C 62.2436 52.3677 62.2929 52.2355 62.2929 52.0634 C 62.2929 51.8913 62.2436 51.7592 62.1418 51.6608 C 62.04 51.5625 61.8981 51.5164 61.7161 51.5164 L 61.0067 51.5164 L 61.0067 52.6044 L 61.7161 52.6044 C 61.8981 52.6074 62.04 52.5583 62.1418 52.463 Z" stroke-linecap="round" />
</g>
		<g transform="matrix(1 0 0 1 8.3804 14.83965)" id="8JuD0GzZcn6adEJF4VHfw"  >
<path style="stroke: none; stroke-width: 1; stroke-dasharray: none; stroke-linecap: butt; stroke-dashoffset: 0; stroke-linejoin: miter; stroke-miterlimit: 4; fill: rgb(0,94,162); fill-rule: nonzero; opacity: 1;" vector-effect="non-scaling-stroke"  transform=" translate(-63.99545, -51.4979)" d="M 64.9516 52.0757 C 64.9023 52.3308 64.7943 52.5275 64.6247 52.672 C 64.4551 52.8164 64.2453 52.8902 63.9986 52.8902 C 63.721 52.8902 63.4927 52.8011 63.3138 52.6197 C 63.1936 52.4999 63.1164 52.3677 63.0856 52.2233 C 63.0548 52.0788 63.0393 51.8391 63.0393 51.4979 C 63.0393 51.1568 63.0548 50.914 63.0856 50.7726 C 63.1164 50.6281 63.1936 50.496 63.3138 50.3761 C 63.4927 50.1978 63.721 50.1056 63.9986 50.1056 C 64.2484 50.1056 64.4581 50.1763 64.6247 50.3208 C 64.7913 50.4652 64.9023 50.665 64.9516 50.9201 L 64.6494 50.9201 C 64.6124 50.748 64.5383 50.6128 64.4242 50.5144 C 64.3101 50.4161 64.1682 50.3669 63.9986 50.3669 C 63.8104 50.3669 63.6531 50.4314 63.5236 50.5574 C 63.4403 50.6404 63.3879 50.7449 63.3663 50.8679 C 63.3447 50.9908 63.3323 51.1998 63.3323 51.4948 C 63.3323 51.793 63.3447 52.002 63.3663 52.1218 C 63.391 52.2448 63.4434 52.3462 63.5236 52.4323 C 63.6531 52.5613 63.8104 52.6228 63.9986 52.6228 C 64.1682 52.6228 64.3101 52.5736 64.4273 52.4753 C 64.5445 52.3769 64.6216 52.2417 64.6555 52.0696 L 64.9516 52.0696 L 64.9516 52.0757 Z" stroke-linecap="round" />
</g>
		<g transform="matrix(1 0 0 1 10.5673 14.84275)" id="tLJU4QHyw70jhkuu80oex"  >
<path style="stroke: none; stroke-width: 1; stroke-dasharray: none; stroke-linecap: butt; stroke-dashoffset: 0; stroke-linejoin: miter; stroke-miterlimit: 4; fill: rgb(0,94,162); fill-rule: nonzero; opacity: 1;" vector-effect="non-scaling-stroke"  transform=" translate(-66.18235, -51.501)" d="M 67.1231 50.3945 L 66.3304 50.3945 L 66.3304 52.8687 L 66.0374 52.8687 L 66.0374 50.3945 L 65.2416 50.3945 L 65.2416 50.1333 L 67.1231 50.1333 L 67.1231 50.3945 Z" stroke-linecap="round" />
</g>
		<g transform="matrix(1 0 0 1 12.9623 14.84275)" id="VpJwM1yqSrQt7JJqqYHc0"  >
<path style="stroke: none; stroke-width: 1; stroke-dasharray: none; stroke-linecap: butt; stroke-dashoffset: 0; stroke-linejoin: miter; stroke-miterlimit: 4; fill: rgb(0,94,162); fill-rule: nonzero; opacity: 1;" vector-effect="non-scaling-stroke"  transform=" translate(-68.57735, -51.501)" d="M 69.5196 52.1188 C 69.5196 52.3523 69.4456 52.5337 69.3006 52.6689 C 69.1557 52.8041 68.9552 52.8687 68.7023 52.8687 L 67.6351 52.8687 L 67.6351 50.1333 L 68.6683 50.1333 C 68.9089 50.1333 69.1063 50.1978 69.2544 50.33 C 69.4024 50.4622 69.4795 50.6343 69.4795 50.8494 C 69.4795 51.0461 69.4117 51.209 69.279 51.335 C 69.2359 51.3781 69.168 51.4211 69.0755 51.461 C 69.1834 51.5071 69.2636 51.5563 69.3191 51.6116 C 69.4518 51.7407 69.5196 51.9098 69.5196 52.1188 Z M 69.0415 51.2152 C 69.1372 51.1322 69.1834 51.0154 69.1834 50.8648 C 69.1834 50.7173 69.1372 50.6005 69.0415 50.5175 C 68.9459 50.4345 68.8133 50.3915 68.6437 50.3915 L 67.925 50.3915 L 67.925 51.3412 L 68.6437 51.3412 C 68.8133 51.3412 68.9459 51.3012 69.0415 51.2152 Z M 69.0786 52.4691 C 69.1773 52.3769 69.2266 52.2571 69.2266 52.1034 C 69.2266 51.9497 69.1773 51.8268 69.0786 51.7377 C 68.9799 51.6485 68.8441 51.6024 68.6745 51.6024 L 67.9281 51.6024 L 67.9281 52.6044 L 68.6745 52.6044 C 68.8441 52.6074 68.9799 52.5613 69.0786 52.4691 Z" stroke-linecap="round" />
</g>
		<g transform="matrix(1 0 0 1 15.3589 14.84275)" id="pPhJfJ0KMiJxvzTlLqEFf"  >
<path style="stroke: none; stroke-width: 1; stroke-dasharray: none; stroke-linecap: butt; stroke-dashoffset: 0; stroke-linejoin: miter; stroke-miterlimit: 4; fill: rgb(0,94,162); fill-rule: nonzero; opacity: 1;" vector-effect="non-scaling-stroke"  transform=" translate(-70.97395, -51.501)" d="M 72.1044 52.8687 L 71.7928 52.8687 L 71.5738 52.2509 L 70.374 52.2509 L 70.155 52.8687 L 69.8435 52.8687 L 70.8521 50.1333 L 71.0988 50.1333 L 72.1044 52.8687 Z M 71.4875 51.9958 L 70.9786 50.5513 L 70.4604 51.9958 L 71.4875 51.9958 Z" stroke-linecap="round" />
</g>
</g>
</g>
</svg>