<?xml version="1.0" encoding="utf-8"?>
<!-- Generator: Adobe Illustrator 26.0.2, SVG Export Plug-In . SVG Version: 6.00 Build 0)  -->
<svg version="1.1" id="Layer_1" xmlns="http://www.w3.org/2000/svg" xmlns:xlink="http://www.w3.org/1999/xlink" x="0px" y="0px"
	 viewBox="0 0 190.42 179.74" style="enable-background:new 0 0 190.42 179.74;" xml:space="preserve">
<style type="text/css">
	.st0{fill:#FDFDFD;}
	.st1{fill:#EEAF1B;}
	.st2{fill:#505665;}
</style>
<g>
	<path class="st0" d="M108.46,161.47C108.46,161.47,108.46,161.47,108.46,161.47c5.58-0.01,11.16-0.01,16.74-0.01
		c4.41,0,8.83,0.02,13.24,0c0.79,0,1.58,0.16,2.11-0.86c0.91-1.76,2.17-3.35,3.07-5.12c3.22-6.33,6.98-12.36,10.52-18.51
		c3.08-5.35,6.1-10.75,9.26-16.07c2.45-4.12,4.85-8.28,7.22-12.44c1.06-1.86,1.01-2.95-0.05-4.65c-2.54-4.07-4.79-8.32-7.26-12.44
		c-2.55-4.25-4.82-8.65-7.42-12.87c-2.6-4.21-4.92-8.59-7.39-12.88c-2.48-4.3-5.04-8.56-7.48-12.88c-0.68-1.21-1.55-1.49-2.84-1.49
		c-17.57,0.05-35.15,0.05-52.72,0.06c-2.17,0-4.33,0-6.5-0.06c-1.45-0.04-2.41,0.36-3.19,1.79c-2.4,4.34-5.04,8.54-7.53,12.82
		c-1,1.71-1.86,3.51-3.07,5.1c-0.45,0.59-0.54,1.23-0.15,1.86c0.43,0.69,1.02,0.21,1.57,0.17c0.99-0.08,1.99-0.13,2.99-0.13
		c14.91-0.01,29.82,0,44.73,0c3.66,0,7.33,0,10.99,0c1.57,0,3.1,0.4,3.96,1.71c1.77,2.69,3.46,5.44,4.93,8.29
		c2.31,4.49,5.02,8.75,7.46,13.15c1.68,3.04,3.54,5.98,5.27,8.99c0.54,0.93,0.58,1.95-0.22,2.77c-0.61,0.63-0.85,1.41-1.25,2.13
		c-1.74,3.1-3.51,6.18-5.29,9.26c-3.05,5.29-6.21,10.53-9.13,15.89c-1.73,3.18-3.74,4.83-7.75,4.78
		c-17.82-0.24-35.65-0.11-53.47-0.12c-1.08,0-2.16-0.05-3.24-0.13c-0.53-0.04-1.15-0.6-1.5,0.21c-0.26,0.59-0.48,1.19,0.03,1.87
		c4.09,5.52,6.94,11.79,10.54,17.6c1.06,1.71,2,2.23,3.84,2.22C89.13,161.44,98.79,161.47,108.46,161.47z"/>
	<path class="st1" d="M10.87,68.06c1.88-0.05,2.33-1.78,3.04-2.91c2.25-3.56,4.14-7.34,6.34-10.94c2.67-4.36,5.33-8.75,7.76-13.23
		c2.84-5.23,6.06-10.23,8.84-15.49c1.23-2.33,2.74-4.52,4.12-6.77c0.13-0.21,0.38-0.4,0.41-0.61c0.35-3.31,2.99-3.1,5.23-3.29
		c2.4-0.2,4.83-0.19,7.24-0.19c15.16-0.01,30.32-0.01,45.48,0c1.09,0,2.14-0.13,3.21-0.31c2.43-0.4,4.61,0.7,5.64,2.76
		c2.53,5.04,5.64,9.74,8.46,14.62c0.08,0.14,0.2,0.26,0.29,0.41c0.74,1.2,1.89,2.5,1.18,3.86c-0.66,1.28-2.28,0.59-3.46,0.59
		c-18.91,0.01-37.82,0.02-56.72-0.09c-2.33-0.01-3.64,1.17-4.52,2.87c-1.95,3.76-4.4,7.23-6.35,10.95
		c-2.77,5.27-6.26,10.1-8.95,15.42c-1.04,2.07-1.86,3.89-1.01,6.07c0.44,1.15,1.19,2.18,1.82,3.25c4.55,7.74,9.11,15.48,13.66,23.22
		c0.62,1.06,0.88,2.29,1.79,3.25c1.15,1.2,2.48,1.75,4.02,1.49c1.83-0.31,3.66-0.2,5.48-0.2c17.16-0.03,34.32-0.03,51.48-0.05
		c0.33,0,0.67-0.03,1,0.01c2.24,0.23,2.69,0.95,1.58,2.87c-2.3,4.01-4.7,7.97-7.05,11.96c-0.93,1.57-1.85,3.14-2.74,4.73
		c-1.05,1.87-2.9,2.92-4.97,2.47c-1.49-0.33-2.98-0.32-4.47-0.32c-17.33-0.01-34.65-0.01-51.98-0.02c-1.08,0-2.15,0.04-3.21-0.31
		c-0.86-0.28-1.42-0.68-1.78-1.55c-1.39-3.38-3.63-6.29-5.39-9.47c-2.56-4.61-5.21-9.18-7.85-13.75c-1.69-2.93-3.48-5.8-5.11-8.76
		c-2.47-4.48-5.27-8.77-7.64-13.31c-1.06-2.05-2.29-4.02-3.82-5.78c-0.31-0.36-0.62-0.51-1.07-0.44
		C10.87,70.06,10.87,69.06,10.87,68.06z"/>
	<path class="st2" d="M108.46,161.47c-9.66,0-19.32-0.04-28.99,0.03c-1.84,0.01-2.78-0.51-3.84-2.22
		c-3.6-5.82-6.45-12.09-10.54-17.6c-0.5-0.68-0.28-1.28-0.03-1.87c0.35-0.81,0.97-0.25,1.5-0.21c1.08,0.08,2.16,0.13,3.24,0.13
		c17.83,0.01,35.65-0.13,53.47,0.12c4,0.05,6.02-1.6,7.75-4.78c2.92-5.37,6.08-10.6,9.13-15.89c1.78-3.08,3.55-6.16,5.29-9.26
		c0.4-0.72,0.64-1.5,1.25-2.13c0.8-0.82,0.75-1.84,0.22-2.77c-1.74-3.01-3.59-5.95-5.27-8.99c-2.44-4.41-5.15-8.67-7.46-13.15
		c-1.47-2.86-3.16-5.61-4.93-8.29c-0.86-1.31-2.38-1.71-3.96-1.71c-3.66,0.01-7.33,0-10.99,0c-14.91,0-29.82-0.01-44.73,0
		c-1,0-2,0.05-2.99,0.13c-0.55,0.05-1.14,0.52-1.57-0.17c-0.39-0.63-0.3-1.28,0.15-1.86c1.21-1.59,2.07-3.38,3.07-5.1
		c2.49-4.28,5.13-8.49,7.53-12.82c0.79-1.42,1.74-1.83,3.19-1.79c2.16,0.06,4.33,0.06,6.5,0.06c17.57-0.01,35.15-0.02,52.72-0.06
		c1.29,0,2.16,0.28,2.84,1.49c2.44,4.33,5,8.58,7.48,12.88c2.47,4.29,4.8,8.67,7.39,12.88c2.6,4.22,4.88,8.62,7.42,12.87
		c2.47,4.12,4.72,8.37,7.26,12.44c1.06,1.7,1.12,2.79,0.05,4.65c-2.38,4.16-4.77,8.32-7.22,12.44c-3.16,5.31-6.18,10.71-9.26,16.07
		c-3.54,6.15-7.3,12.17-10.52,18.51c-0.9,1.77-2.16,3.35-3.07,5.12c-0.53,1.02-1.32,0.86-2.11,0.86c-4.41,0.02-8.83,0-13.24,0
		C119.62,161.46,114.04,161.46,108.46,161.47C108.46,161.47,108.46,161.47,108.46,161.47z"/>
</g>
</svg>
