<svg width="131" height="61" viewBox="0 0 131 61" fill="none" xmlns="http://www.w3.org/2000/svg">
    <path d="M67.6404 22.05C68.6604 22.254 69.4141 22.611 69.9014 23.121C70.3888 23.6197 70.6324 24.2203 70.6324 24.923C70.6324 25.909 70.1791 26.6967 69.2724 27.286C68.3771 27.8753 67.2778 28.17 65.9744 28.17C64.9544 28.17 63.9968 28.0057 63.1014 27.677C62.2061 27.3483 61.4751 26.8667 60.9084 26.232L62.5914 24.158C63.0674 24.5887 63.6171 24.923 64.2404 25.161C64.8638 25.399 65.4418 25.518 65.9744 25.518C66.4391 25.518 66.8301 25.4217 67.1474 25.229C67.4761 25.025 67.6404 24.753 67.6404 24.413C67.6404 23.9937 67.4591 23.7103 67.0964 23.563C66.7451 23.4043 66.2294 23.325 65.5494 23.325H63.9854V20.775H65.5494C66.2294 20.775 66.7451 20.7013 67.0964 20.554C67.4591 20.3953 67.6404 20.1063 67.6404 19.687C67.6404 19.347 67.4761 19.0807 67.1474 18.888C66.8301 18.684 66.4391 18.582 65.9744 18.582C65.4418 18.582 64.8638 18.701 64.2404 18.939C63.6171 19.177 63.0674 19.5113 62.5914 19.942L60.9084 17.868C61.4751 17.2333 62.2061 16.7517 63.1014 16.423C63.9968 16.0943 64.9544 15.93 65.9744 15.93C67.2778 15.93 68.3771 16.2247 69.2724 16.814C70.1791 17.4033 70.6324 18.191 70.6324 19.177C70.6324 19.8797 70.3888 20.486 69.9014 20.996C69.4141 21.4947 68.6604 21.846 67.6404 22.05ZM75.7257 28H72.8357V16.1H75.7257V20.775H80.4857V16.1H83.3757V28H80.4857V23.325H75.7257V28ZM97.481 28H94.404L93.707 25.654H88.505L87.808 28H84.901L88.624 16.1H93.758L97.481 28ZM91.106 16.95L89.27 23.104H92.942L91.106 16.95ZM109.555 16.1L105.849 21.863L109.895 28H106.427L103.367 23.325H101.905V28H99.015V16.1H101.905V20.775H103.367L106.376 16.1H109.555Z" fill="white"/>
    <path d="M63.2884 44.291H61.4014V32.391H71.5504V44.291H69.6804V34.074H63.2884V44.291ZM76.1208 44.291H74.2338V32.391H78.9938C80.2064 32.391 81.1924 32.748 81.9518 33.462C82.7111 34.176 83.0908 35.077 83.0908 36.165C83.0908 37.2417 82.7111 38.1313 81.9518 38.834C81.1924 39.5367 80.2064 39.888 78.9938 39.888H76.1208V44.291ZM76.1208 34.074V38.205H78.9938C79.6284 38.205 80.1441 38.0123 80.5408 37.627C80.9488 37.2303 81.1528 36.7373 81.1528 36.148C81.1528 35.5473 80.9488 35.0543 80.5408 34.669C80.1441 34.2723 79.6284 34.074 78.9938 34.074H76.1208ZM86.3031 42.693C85.1131 41.5143 84.5181 40.0637 84.5181 38.341C84.5181 36.6183 85.1131 35.1677 86.3031 33.989C87.5045 32.8103 88.9835 32.221 90.7401 32.221C92.4855 32.221 93.9531 32.8103 95.1431 33.989C96.3445 35.1677 96.9451 36.6183 96.9451 38.341C96.9451 40.0637 96.3445 41.5143 95.1431 42.693C93.9531 43.8717 92.4855 44.461 90.7401 44.461C88.9835 44.461 87.5045 43.8717 86.3031 42.693ZM87.6801 35.23C86.8641 36.0687 86.4561 37.1057 86.4561 38.341C86.4561 39.5763 86.8641 40.619 87.6801 41.469C88.5075 42.3077 89.5275 42.727 90.7401 42.727C91.9528 42.727 92.9671 42.3077 93.7831 41.469C94.5991 40.619 95.0071 39.5763 95.0071 38.341C95.0071 37.1057 94.5991 36.0687 93.7831 35.23C92.9671 34.38 91.9528 33.955 90.7401 33.955C89.5275 33.955 88.5075 34.38 87.6801 35.23ZM106.9 44.291H99.2842V32.391H106.9V34.074H101.171V37.508H106.73V39.174H101.171V42.608H106.9V44.291ZM119.034 32.391L114.971 38.205L119.374 44.291H117.096L113.339 39.174H111.231V44.291H109.344V32.391H111.231V37.508H113.339L116.943 32.391H119.034ZM126.176 44.291H124.306V34.074H120.464V32.391H130.018V34.074H126.176V44.291Z" fill="white"/>
    <rect x="110.948" y="16.0312" width="2.87487" height="2.87487" fill="white"/>
    <rect x="110.948" y="24.8965" width="2.87487" height="2.87487" fill="white"/>
    <path fill-rule="evenodd" clip-rule="evenodd" d="M24.5 0H22.5V7H0V54H22.5V61H24.5V54H47V7H24.5V0ZM43.5859 52L24.5 32.9143V52H43.5859ZM22.5 52V32.8887L3.38867 52H22.5ZM3.41406 9H22.5V28.0859L3.41406 9ZM24.5 9H43.5605L24.5 28.0605V9ZM24.9014 30.4873L45 50.5859V10.3889L24.9014 30.4873ZM22.0732 30.4873L2 10.4143V50.5605L22.0732 30.4873Z" fill="white"/>
</svg>
