<?xml version="1.0" encoding="UTF-8" standalone="no" ?>
<!DOCTYPE svg PUBLIC "-//W3C//DTD SVG 1.1//EN" "http://www.w3.org/Graphics/SVG/1.1/DTD/svg11.dtd">
<svg xmlns="http://www.w3.org/2000/svg" xmlns:xlink="http://www.w3.org/1999/xlink" version="1.1" width="131" height="61" viewBox="0 0 131 61" xml:space="preserve">
<desc>Created with Fabric.js 5.3.0</desc>
    <defs>
</defs>
    <g transform="matrix(0.9424460432 0 0 0.9104477612 65.5922931996 30.5922931996)" id="zytw4VYUGjB5q98Hjzyys"  >
<g style="" vector-effect="non-scaling-stroke"   >
		<g transform="matrix(1 0 0 1 -3.83 -8.4504)" id="nd975BrtFd-3vzvMNFRkb"  >
<path style="stroke: none; stroke-width: 1; stroke-dasharray: none; stroke-linecap: butt; stroke-dashoffset: 0; stroke-linejoin: miter; stroke-miterlimit: 4; fill: #FFF; fill-rule: nonzero; opacity: 1;" vector-effect="non-scaling-stroke"  transform=" translate(-65.67, -25.0496)" d="M 61.25 19.0996 L 70.09 19.0996 L 70.09 24.2506 L 62.117 28.4496 L 70.09 28.4496 L 70.09 30.9996 L 61.25 30.9996 L 61.25 25.8486 L 69.223 21.6496 L 61.25 21.6496 L 61.25 19.0996 Z" stroke-linecap="round" />
</g>
    <g transform="matrix(1 0 0 1 8.412 -8.4504)" id="rAQiDimoZ4TgKTsvWElBH"  >
<path style="stroke: none; stroke-width: 1; stroke-dasharray: none; stroke-linecap: butt; stroke-dashoffset: 0; stroke-linejoin: miter; stroke-miterlimit: 4; fill: #FFF; fill-rule: nonzero; opacity: 1;" vector-effect="non-scaling-stroke"  transform=" translate(-77.912, -25.0496)" d="M 80.462 30.1326 L 80.462 19.0996 L 83.352 19.0996 L 83.352 30.9996 L 77.759 30.9996 L 75.362 19.9666 L 75.362 30.9996 L 72.472 30.9996 L 72.472 19.0996 L 78.065 19.0996 L 80.462 30.1326 Z" stroke-linecap="round" />
</g>
    <g transform="matrix(1 0 0 1 21.676 -8.4504)" id="Uf4m-H4dTMRozRb7L64pL"  >
<path style="stroke: none; stroke-width: 1; stroke-dasharray: none; stroke-linecap: butt; stroke-dashoffset: 0; stroke-linejoin: miter; stroke-miterlimit: 4; fill: #FFF; fill-rule: nonzero; opacity: 1;" vector-effect="non-scaling-stroke"  transform=" translate(-91.176, -25.0496)" d="M 97.466 30.9996 L 94.389 30.9996 L 93.692 28.6536 L 88.49 28.6536 L 87.793 30.9996 L 84.886 30.9996 L 88.609 19.0996 L 93.743 19.0996 L 97.466 30.9996 Z M 91.091 19.9496 L 89.255 26.1036 L 92.927 26.1036 L 91.091 19.9496 Z" stroke-linecap="round" />
</g>
    <g transform="matrix(1 0 0 1 34.94 -8.4504)" id="tTARVX9-OZmB3MWGEM43P"  >
<path style="stroke: none; stroke-width: 1; stroke-dasharray: none; stroke-linecap: butt; stroke-dashoffset: 0; stroke-linejoin: miter; stroke-miterlimit: 4; fill: #FFF; fill-rule: nonzero; opacity: 1;" vector-effect="non-scaling-stroke"  transform=" translate(-104.44, -25.0496)" d="M 105.222 23.9276 L 109.88 30.9996 L 106.412 30.9996 L 103.267 26.1886 L 101.89 27.7866 L 101.89 30.9996 L 99 30.9996 L 99 19.0996 L 101.89 19.0996 L 101.89 23.7066 L 105.783 19.0996 L 109.37 19.0996 L 105.222 23.9276 Z" stroke-linecap="round" />
</g>
    <g transform="matrix(1 0 0 1 -3.66525 7.8407)" id="9Yaeor9Syh1NA7u3F7Z2y"  >
<path style="stroke: none; stroke-width: 1; stroke-dasharray: none; stroke-linecap: butt; stroke-dashoffset: 0; stroke-linejoin: miter; stroke-miterlimit: 4; fill: #FFF; fill-rule: nonzero; opacity: 1;" vector-effect="non-scaling-stroke"  transform=" translate(-65.83475, -41.3407)" d="M 63.2933 47.2907 L 61.4062 47.2907 L 61.4062 35.3907 L 66.1663 35.3907 C 67.3789 35.3907 68.3649 35.7477 69.1243 36.4617 C 69.8836 37.1757 70.2633 38.0767 70.2633 39.1647 C 70.2633 40.2414 69.8836 41.131 69.1243 41.8337 C 68.3649 42.5364 67.3789 42.8877 66.1663 42.8877 L 63.2933 42.8877 L 63.2933 47.2907 Z M 63.2933 37.0737 L 63.2933 41.2047 L 66.1663 41.2047 C 66.8009 41.2047 67.3166 41.012 67.7133 40.6267 C 68.1213 40.23 68.3253 39.737 68.3253 39.1477 C 68.3253 38.547 68.1213 38.054 67.7133 37.6687 C 67.3166 37.272 66.8009 37.0737 66.1663 37.0737 L 63.2933 37.0737 Z" stroke-linecap="round" />
</g>
    <g transform="matrix(1 0 0 1 7.27 7.8407)" id="FP0e6tSkrOLoREk5lSxg3"  >
<path style="stroke: none; stroke-width: 1; stroke-dasharray: none; stroke-linecap: butt; stroke-dashoffset: 0; stroke-linejoin: miter; stroke-miterlimit: 4; fill: #FFF; fill-rule: nonzero; opacity: 1;" vector-effect="non-scaling-stroke"  transform=" translate(-76.77, -41.3407)" d="M 78.164 42.5647 L 81.36 47.2907 L 79.099 47.2907 L 75.988 42.6667 L 74.067 42.6667 L 74.067 47.2907 L 72.18 47.2907 L 72.18 35.3907 L 77.11 35.3907 C 78.2773 35.3907 79.2237 35.7364 79.949 36.4277 C 80.6857 37.1077 81.054 37.9747 81.054 39.0287 C 81.054 39.9014 80.7933 40.6607 80.272 41.3067 C 79.7507 41.9527 79.048 42.372 78.164 42.5647 Z M 77.11 37.0737 L 74.067 37.0737 L 74.067 40.9497 L 77.11 40.9497 C 77.6993 40.9497 78.181 40.7684 78.555 40.4057 C 78.929 40.0317 79.116 39.567 79.116 39.0117 C 79.116 38.4564 78.929 37.9974 78.555 37.6347 C 78.181 37.2607 77.6993 37.0737 77.11 37.0737 Z" stroke-linecap="round" />
</g>
    <g transform="matrix(1 0 0 1 19.5265 7.8407)" id="LIm-e8xtrkxIhTfGoiw94"  >
<path style="stroke: none; stroke-width: 1; stroke-dasharray: none; stroke-linecap: butt; stroke-dashoffset: 0; stroke-linejoin: miter; stroke-miterlimit: 4; fill: #FFF; fill-rule: nonzero; opacity: 1;" vector-effect="non-scaling-stroke"  transform=" translate(-89.0265, -41.3407)" d="M 84.598 45.6927 C 83.408 44.514 82.813 43.0634 82.813 41.3407 C 82.813 39.618 83.408 38.1674 84.598 36.9887 C 85.7993 35.81 87.2783 35.2207 89.035 35.2207 C 90.7803 35.2207 92.248 35.81 93.438 36.9887 C 94.6393 38.1674 95.24 39.618 95.24 41.3407 C 95.24 43.0634 94.6393 44.514 93.438 45.6927 C 92.248 46.8714 90.7803 47.4607 89.035 47.4607 C 87.2783 47.4607 85.7993 46.8714 84.598 45.6927 Z M 85.975 38.2297 C 85.159 39.0684 84.751 40.1054 84.751 41.3407 C 84.751 42.576 85.159 43.6187 85.975 44.4687 C 86.8023 45.3074 87.8223 45.7267 89.035 45.7267 C 90.2476 45.7267 91.262 45.3074 92.078 44.4687 C 92.894 43.6187 93.302 42.576 93.302 41.3407 C 93.302 40.1054 92.894 39.0684 92.078 38.2297 C 91.262 37.3797 90.2476 36.9547 89.035 36.9547 C 87.8223 36.9547 86.8023 37.3797 85.975 38.2297 Z" stroke-linecap="round" />
</g>
    <g transform="matrix(1 0 0 1 30.8278 7.9257)" id="Fk6fA9ZseuIY6W_gQb-LB"  >
<path style="stroke: none; stroke-width: 1; stroke-dasharray: none; stroke-linecap: butt; stroke-dashoffset: 0; stroke-linejoin: miter; stroke-miterlimit: 4; fill: #FFF; fill-rule: nonzero; opacity: 1;" vector-effect="non-scaling-stroke"  transform=" translate(-100.3278, -41.4257)" d="M 96.4006 43.9927 L 98.2876 43.7207 C 98.3216 44.4007 98.5256 44.905 98.8996 45.2337 C 99.285 45.5624 99.761 45.7267 100.328 45.7267 C 100.951 45.7267 101.45 45.5227 101.824 45.1147 C 102.198 44.6954 102.385 44.1514 102.385 43.4827 L 102.385 35.3907 L 104.255 35.3907 L 104.255 43.4827 C 104.255 44.6727 103.881 45.636 103.133 46.3727 C 102.396 47.098 101.444 47.4607 100.277 47.4607 C 99.2113 47.4607 98.3216 47.1547 97.6076 46.5427 C 96.8936 45.9307 96.4913 45.0807 96.4006 43.9927 Z" stroke-linecap="round" />
</g>
    <g transform="matrix(1 0 0 1 41.084 7.8407)" id="9oojo6tSY528O65HR3QVr"  >
<path style="stroke: none; stroke-width: 1; stroke-dasharray: none; stroke-linecap: butt; stroke-dashoffset: 0; stroke-linejoin: miter; stroke-miterlimit: 4; fill: #FFF; fill-rule: nonzero; opacity: 1;" vector-effect="non-scaling-stroke"  transform=" translate(-110.584, -41.3407)" d="M 114.392 47.2907 L 106.776 47.2907 L 106.776 35.3907 L 114.392 35.3907 L 114.392 37.0737 L 108.663 37.0737 L 108.663 40.5077 L 114.222 40.5077 L 114.222 42.1737 L 108.663 42.1737 L 108.663 45.6077 L 114.392 45.6077 L 114.392 47.2907 Z" stroke-linecap="round" />
</g>
    <g transform="matrix(1 0 0 1 52.7025 7.8407)" id="MIMNAAQCqWo5SnbHj3Z5W"  >
<path style="stroke: none; stroke-width: 1; stroke-dasharray: none; stroke-linecap: butt; stroke-dashoffset: 0; stroke-linejoin: miter; stroke-miterlimit: 4; fill: #FFF; fill-rule: nonzero; opacity: 1;" vector-effect="non-scaling-stroke"  transform=" translate(-122.2025, -41.3407)" d="M 118.131 45.6927 C 116.941 44.514 116.346 43.0634 116.346 41.3407 C 116.346 39.618 116.941 38.1674 118.131 36.9887 C 119.332 35.81 120.811 35.2207 122.568 35.2207 C 123.837 35.2207 124.959 35.555 125.934 36.2237 C 126.909 36.881 127.617 37.697 128.059 38.6717 L 126.325 39.3517 C 125.985 38.6377 125.481 38.0597 124.812 37.6177 C 124.155 37.1757 123.407 36.9547 122.568 36.9547 C 121.355 36.9547 120.335 37.3797 119.508 38.2297 C 118.692 39.0684 118.284 40.1054 118.284 41.3407 C 118.284 42.576 118.692 43.6187 119.508 44.4687 C 120.335 45.3074 121.355 45.7267 122.568 45.7267 C 123.407 45.7267 124.155 45.5057 124.812 45.0637 C 125.481 44.6217 125.985 44.0437 126.325 43.3297 L 128.059 44.0097 C 127.617 44.9844 126.909 45.806 125.934 46.4747 C 124.959 47.132 123.837 47.4607 122.568 47.4607 C 120.811 47.4607 119.332 46.8714 118.131 45.6927 Z" stroke-linecap="round" />
</g>
    <g transform="matrix(1 0 0 1 64.145 7.8407)" id="QuD3_19otZ2deZDQ-OqBm"  >
<path style="stroke: none; stroke-width: 1; stroke-dasharray: none; stroke-linecap: butt; stroke-dashoffset: 0; stroke-linejoin: miter; stroke-miterlimit: 4; fill: #FFF; fill-rule: nonzero; opacity: 1;" vector-effect="non-scaling-stroke"  transform=" translate(-133.645, -41.3407)" d="M 134.58 47.2907 L 132.71 47.2907 L 132.71 37.0737 L 128.868 37.0737 L 128.868 35.3907 L 138.422 35.3907 L 138.422 37.0737 L 134.58 37.0737 L 134.58 47.2907 Z" stroke-linecap="round" />
</g>
    <g transform="matrix(1 0 0 1 -46 0)" id="ZosH_RIBjjlMdGYnlDiD9"  >
<path style="stroke: none; stroke-width: 1; stroke-dasharray: none; stroke-linecap: butt; stroke-dashoffset: 0; stroke-linejoin: miter; stroke-miterlimit: 4; fill: #FFF; fill-rule: evenodd; opacity: 1;" vector-effect="non-scaling-stroke"  transform=" translate(-23.5, -33.5)" d="M 24.5 0 L 22.5 0 L 22.5 10 L 0 10 L 0 57 L 22.5 57 L 22.5 67 L 24.5 67 L 24.5 57 L 47 57 L 47 10 L 24.5 10 L 24.5 0 Z M 43.5859 55 L 24.5 35.9143 L 24.5 55 L 43.5859 55 Z M 22.5 55 L 22.5 35.8887 L 3.38867 55 L 22.5 55 Z M 3.41406 12 L 22.5 12 L 22.5 31.0859 L 3.41406 12 Z M 24.5 12 L 43.5605 12 L 24.5 31.0605 L 24.5 12 Z M 24.9014 33.4873 L 45 53.5859 L 45 13.3889 L 24.9014 33.4873 Z M 22.0732 33.4873 L 2 13.4143 L 2 53.5605 L 22.0732 33.4873 Z" stroke-linecap="round" />
</g>
</g>
</g>
</svg>